<?xml version="1.0" encoding="us-ascii" standalone="no"?><svg xmlns="http://www.w3.org/2000/svg" xmlns:xlink="http://www.w3.org/1999/xlink" contentStyleType="text/css" height="1174.6353px" preserveAspectRatio="none" style="width:2167px;height:1174px;background:#FFFFFF;" version="1.1" viewBox="0 0 2167 1174" width="2167.5446px" zoomAndPan="magnify"><defs/><g><!--cluster FE--><g id="cluster_FE"><rect fill="#F8FAFD" height="237.034" rx="2.1948" ry="2.1948" style="stroke:#AFC2DD;stroke-width:0.8779038357644516;" width="657.55" x="120.2728" y="720.759"/><text fill="#000000" font-family="Segoe UI" font-size="11.4127" font-weight="bold" lengthAdjust="spacing" textLength="227.3771" x="335.3593" y="734.8304">Frontend Web (React + TypeScript + Vite)</text></g><!--cluster BE--><g id="cluster_BE"><rect fill="#F8FAFD" height="892.8282" rx="2.1948" ry="2.1948" style="stroke:#AFC2DD;stroke-width:0.8779038357644516;" width="1055.6794" x="805.9157" y="205.4295"/><text fill="#000000" font-family="Segoe UI" font-size="11.4127" font-weight="bold" lengthAdjust="spacing" textLength="191.383" x="1238.0639" y="219.5008">Backend API (Express + TypeScript)</text></g><!--cluster ROUTES--><g id="cluster_ROUTES"><rect fill="#F8FAFD" height="741.8287" rx="2.1948" ry="2.1948" style="stroke:#AFC2DD;stroke-width:0.8779038357644516;" width="180.8482" x="1369.53" y="258.1037"/><text fill="#000000" font-family="Segoe UI" font-size="11.4127" font-weight="bold" lengthAdjust="spacing" textLength="138.7088" x="1390.5997" y="272.1751">API por Dom&#237;nios (Rotas)</text></g><!--cluster DOMAIN--><g id="cluster_DOMAIN"><rect fill="#F8FAFD" height="726.9044" rx="2.1948" ry="2.1948" style="stroke:#AFC2DD;stroke-width:0.8779038357644516;" width="179.0924" x="1654.4098" y="251.0805"/><text fill="#000000" font-family="Segoe UI" font-size="11.4127" font-weight="bold" lengthAdjust="spacing" textLength="111.4938" x="1688.2091" y="265.1518">Servi&#231;os de Dom&#237;nio</text></g><!--entity FE_ROUTER--><g id="elem_FE_ROUTER"><rect fill="#EEF3FA" height="32.7379" rx="2.1948" ry="2.1948" style="stroke:#1F3A68;stroke-width:0.4389519178822258;" width="103.5927" x="134.3193" y="760.7037"/><text fill="#000000" font-family="Segoe UI" font-size="11.4127" lengthAdjust="spacing" textLength="86.0346" x="143.0983" y="781.7982">Router + Guards</text></g><!--entity FE_CTX--><g id="elem_FE_CTX"><rect fill="#EEF3FA" height="47.9178" rx="2.1948" ry="2.1948" style="stroke:#1F3A68;stroke-width:0.4389519178822258;" width="130.8077" x="294.0978" y="752.8025"/><text fill="#000000" font-family="Segoe UI" font-size="11.4127" lengthAdjust="spacing" textLength="101.8368" x="302.8768" y="773.8971">Contexto de Sess&#227;o</text><text fill="#000000" font-family="Segoe UI" font-size="11.4127" lengthAdjust="spacing" textLength="109.738" x="306.3884" y="789.0769">e Permiss&#245;es Efetivas</text></g><!--entity FE_PAGES--><g id="elem_FE_PAGES"><rect fill="#EEF3FA" height="32.7379" rx="2.1948" ry="2.1948" style="stroke:#1F3A68;stroke-width:0.4389519178822258;" width="125.5402" x="481.0913" y="831.8139"/><text fill="#000000" font-family="Segoe UI" font-size="11.4127" lengthAdjust="spacing" textLength="107.9822" x="489.8703" y="852.9084">P&#225;ginas por Dom&#237;nio</text></g><!--entity FE_API--><g id="elem_FE_API"><rect fill="#EEF3FA" height="47.9178" rx="2.1948" ry="2.1948" style="stroke:#1F3A68;stroke-width:0.4389519178822258;" width="104.4706" x="659.3058" y="823.9127"/><text fill="#000000" font-family="Segoe UI" font-size="11.4127" lengthAdjust="spacing" textLength="63.2091" x="668.0848" y="845.0073">Cliente REST</text><text fill="#000000" font-family="Segoe UI" font-size="11.4127" lengthAdjust="spacing" textLength="83.4009" x="671.5964" y="860.1872">+ Cache + Retry</text></g><!--entity FE_I18N--><g id="elem_FE_I18N"><rect fill="#EEF3FA" height="32.7379" rx="2.1948" ry="2.1948" style="stroke:#1F3A68;stroke-width:0.4389519178822258;" width="107.9822" x="305.5105" y="831.8139"/><text fill="#000000" font-family="Segoe UI" font-size="11.4127" lengthAdjust="spacing" textLength="90.4241" x="314.2896" y="852.9084">I18N PT-PT/PT-BR</text></g><!--entity FE_STATE--><g id="elem_FE_STATE"><rect fill="#EEF3FA" height="47.9178" rx="2.1948" ry="2.1948" style="stroke:#1F3A68;stroke-width:0.4389519178822258;" width="137.8309" x="290.5862" y="895.023"/><text fill="#000000" font-family="Segoe UI" font-size="11.4127" lengthAdjust="spacing" textLength="120.2728" x="299.3652" y="916.1175">Gestor de Estado de UI</text><text fill="#000000" font-family="Segoe UI" font-size="11.4127" lengthAdjust="spacing" textLength="82.523" x="302.8768" y="931.2974">e Loading/Erros</text></g><!--entity BE_SEC--><g id="elem_BE_SEC"><rect fill="#EEF3FA" height="47.9178" rx="2.1948" ry="2.1948" style="stroke:#1F3A68;stroke-width:0.4389519178822258;" width="162.4122" x="826.9854" y="823.9127"/><text fill="#000000" font-family="Segoe UI" font-size="11.4127" lengthAdjust="spacing" textLength="113.2496" x="835.7645" y="845.0073">Seguran&#231;a de Entrada</text><text fill="#000000" font-family="Segoe UI" font-size="11.4127" lengthAdjust="spacing" textLength="144.8541" x="835.7645" y="860.1872">CORS + Helmet + Rate Limit</text></g><!--entity BE_AUTH--><g id="elem_BE_AUTH"><rect fill="#EEF3FA" height="47.9178" rx="2.1948" ry="2.1948" style="stroke:#1F3A68;stroke-width:0.4389519178822258;" width="122.9065" x="1042.0719" y="823.9127"/><text fill="#000000" font-family="Segoe UI" font-size="11.4127" lengthAdjust="spacing" textLength="64.9649" x="1050.8509" y="845.0073">Autentica&#231;&#227;o</text><text fill="#000000" font-family="Segoe UI" font-size="11.4127" lengthAdjust="spacing" textLength="105.3485" x="1050.8509" y="860.1872">JWT/Bearer + OAuth</text></g><!--entity BE_SCOPE--><g id="elem_BE_SCOPE"><rect fill="#EEF3FA" height="47.9178" rx="2.1948" ry="2.1948" style="stroke:#1F3A68;stroke-width:0.4389519178822258;" width="120.2728" x="1217.6526" y="823.9127"/><text fill="#000000" font-family="Segoe UI" font-size="11.4127" lengthAdjust="spacing" textLength="90.4241" x="1226.4317" y="845.0073">Motor de Escopo</text><text fill="#000000" font-family="Segoe UI" font-size="11.4127" lengthAdjust="spacing" textLength="99.2031" x="1229.9433" y="860.1872">e Permiss&#227;o Efetiva</text></g><!--entity BE_VALID--><g id="elem_BE_VALID"><rect fill="#EEF3FA" height="47.9178" rx="2.1948" ry="2.1948" style="stroke:#1F3A68;stroke-width:0.4389519178822258;" width="128.174" x="1395.8671" y="1021.4411"/><text fill="#000000" font-family="Segoe UI" font-size="11.4127" lengthAdjust="spacing" textLength="110.6159" x="1404.6461" y="1042.5357">Valida&#231;&#227;o de Payload</text><text fill="#000000" font-family="Segoe UI" font-size="11.4127" lengthAdjust="spacing" textLength="71.1102" x="1404.6461" y="1057.7155">Zod + Regras</text></g><!--entity BE_AUDIT--><g id="elem_BE_AUDIT"><rect fill="#EEF3FA" height="32.7379" rx="2.1948" ry="2.1948" style="stroke:#1F3A68;stroke-width:0.4389519178822258;" width="130.8077" x="1678.5521" y="1029.3422"/><text fill="#000000" font-family="Segoe UI" font-size="11.4127" lengthAdjust="spacing" textLength="113.2496" x="1687.3312" y="1050.4368">Auditoria e Telemetria</text></g><!--entity R_AUTH--><g id="elem_R_AUTH"><rect fill="#EEF3FA" height="32.7379" rx="2.1948" ry="2.1948" style="stroke:#1F3A68;stroke-width:0.4389519178822258;" width="39.5057" x="1440.2012" y="882.7323"/><text fill="#000000" font-family="Segoe UI" font-size="11.4127" lengthAdjust="spacing" textLength="21.9476" x="1448.9803" y="903.8269">auth</text></g><!--entity R_USERS--><g id="elem_R_USERS"><rect fill="#EEF3FA" height="32.7379" rx="2.1948" ry="2.1948" style="stroke:#1F3A68;stroke-width:0.4389519178822258;" width="138.7088" x="1390.5997" y="440.2688"/><text fill="#000000" font-family="Segoe UI" font-size="11.4127" lengthAdjust="spacing" textLength="121.1507" x="1399.3787" y="461.3633">users (inclui admiss&#245;es)</text></g><!--entity R_PROFILE--><g id="elem_R_PROFILE"><rect fill="#EEF3FA" height="32.7379" rx="2.1948" ry="2.1948" style="stroke:#1F3A68;stroke-width:0.4389519178822258;" width="50.9184" x="1434.4949" y="313.8506"/><text fill="#000000" font-family="Segoe UI" font-size="11.4127" lengthAdjust="spacing" textLength="33.3603" x="1443.2739" y="334.9452">profile</text></g><!--entity R_VAC--><g id="elem_R_VAC"><rect fill="#EEF3FA" height="32.7379" rx="2.1948" ry="2.1948" style="stroke:#1F3A68;stroke-width:0.4389519178822258;" width="64.9649" x="1427.4716" y="377.0597"/><text fill="#000000" font-family="Segoe UI" font-size="11.4127" lengthAdjust="spacing" textLength="47.4068" x="1436.2507" y="398.1543">vacations</text></g><!--entity R_PERM--><g id="elem_R_PERM"><rect fill="#EEF3FA" height="32.7379" rx="2.1948" ry="2.1948" style="stroke:#1F3A68;stroke-width:0.4389519178822258;" width="79.0113" x="1420.4484" y="503.4778"/><text fill="#000000" font-family="Segoe UI" font-size="11.4127" lengthAdjust="spacing" textLength="61.4533" x="1429.2274" y="524.5724">permissions</text></g><!--entity R_HB--><g id="elem_R_HB"><rect fill="#EEF3FA" height="32.7379" rx="2.1948" ry="2.1948" style="stroke:#1F3A68;stroke-width:0.4389519178822258;" width="70.2323" x="1424.8379" y="566.6869"/><text fill="#000000" font-family="Segoe UI" font-size="11.4127" lengthAdjust="spacing" textLength="52.6742" x="1433.617" y="587.7815">hour-bank</text></g><!--entity R_TRN--><g id="elem_R_TRN"><rect fill="#EEF3FA" height="32.7379" rx="2.1948" ry="2.1948" style="stroke:#1F3A68;stroke-width:0.4389519178822258;" width="61.4533" x="1429.2274" y="756.3142"/><text fill="#000000" font-family="Segoe UI" font-size="11.4127" lengthAdjust="spacing" textLength="43.8952" x="1438.0065" y="777.4087">trainings</text></g><!--entity R_CAR--><g id="elem_R_CAR"><rect fill="#EEF3FA" height="32.7379" rx="2.1948" ry="2.1948" style="stroke:#1F3A68;stroke-width:0.4389519178822258;" width="76.3776" x="1421.7653" y="819.5232"/><text fill="#000000" font-family="Segoe UI" font-size="11.4127" lengthAdjust="spacing" textLength="58.8196" x="1430.5443" y="840.6178">career-plan</text></g><!--entity R_NOTIF--><g id="elem_R_NOTIF"><rect fill="#EEF3FA" height="32.7379" rx="2.1948" ry="2.1948" style="stroke:#1F3A68;stroke-width:0.4389519178822258;" width="79.0113" x="1420.4484" y="693.1051"/><text fill="#000000" font-family="Segoe UI" font-size="11.4127" lengthAdjust="spacing" textLength="61.4533" x="1429.2274" y="714.1996">notifications</text></g><!--entity R_FILE--><g id="elem_R_FILE"><rect fill="#EEF3FA" height="32.7379" rx="2.1948" ry="2.1948" style="stroke:#1F3A68;stroke-width:0.4389519178822258;" width="37.7499" x="1441.0791" y="945.9414"/><text fill="#000000" font-family="Segoe UI" font-size="11.4127" lengthAdjust="spacing" textLength="20.1918" x="1449.8582" y="967.0359">files</text></g><!--entity R_WELL--><g id="elem_R_WELL"><rect fill="#EEF3FA" height="32.7379" rx="2.1948" ry="2.1948" style="stroke:#1F3A68;stroke-width:0.4389519178822258;" width="65.8428" x="1427.0327" y="629.896"/><text fill="#000000" font-family="Segoe UI" font-size="11.4127" lengthAdjust="spacing" textLength="48.2847" x="1435.8117" y="650.9906">wellbeing</text></g><!--entity D_APPROVAL--><g id="elem_D_APPROVAL"><rect fill="#EEF3FA" height="47.9178" rx="2.1948" ry="2.1948" style="stroke:#1F3A68;stroke-width:0.4389519178822258;" width="107.9822" x="1689.9649" y="283.124"/><text fill="#000000" font-family="Segoe UI" font-size="11.4127" lengthAdjust="spacing" textLength="60.5754" x="1698.7439" y="304.2185">Aprova&#231;&#245;es</text><text fill="#000000" font-family="Segoe UI" font-size="11.4127" lengthAdjust="spacing" textLength="86.9125" x="1702.2555" y="319.3984">e Versionamento</text></g><!--entity D_POLICY--><g id="elem_D_POLICY"><rect fill="#EEF3FA" height="47.9178" rx="2.1948" ry="2.1948" style="stroke:#1F3A68;stroke-width:0.4389519178822258;" width="150.9995" x="1668.4562" y="362.1353"/><text fill="#000000" font-family="Segoe UI" font-size="11.4127" lengthAdjust="spacing" textLength="74.6218" x="1677.2353" y="383.2299">Pol&#237;ticas PT/BR</text><text fill="#000000" font-family="Segoe UI" font-size="11.4127" lengthAdjust="spacing" textLength="133.4414" x="1677.2353" y="398.4097">Compliance e Capacidade</text></g><!--entity D_PERM--><g id="elem_D_PERM"><rect fill="#EEF3FA" height="47.9178" rx="2.1948" ry="2.1948" style="stroke:#1F3A68;stroke-width:0.4389519178822258;" width="83.4009" x="1702.2555" y="583.3671"/><text fill="#000000" font-family="Segoe UI" font-size="11.4127" lengthAdjust="spacing" textLength="57.9417" x="1711.0346" y="604.4617">Permiss&#245;es</text><text fill="#000000" font-family="Segoe UI" font-size="11.4127" lengthAdjust="spacing" textLength="62.3312" x="1714.5462" y="619.6415">e Restri&#231;&#245;es</text></g><!--entity D_AUDIT--><g id="elem_D_AUDIT"><rect fill="#EEF3FA" height="32.7379" rx="2.1948" ry="2.1948" style="stroke:#1F3A68;stroke-width:0.4389519178822258;" width="64.087" x="1711.9125" y="520.158"/><text fill="#000000" font-family="Segoe UI" font-size="11.4127" lengthAdjust="spacing" textLength="46.5289" x="1720.6915" y="541.2526">Auditoria</text></g><!--entity D_EXPORT--><g id="elem_D_EXPORT"><rect fill="#EEF3FA" height="32.7379" rx="2.1948" ry="2.1948" style="stroke:#1F3A68;stroke-width:0.4389519178822258;" width="128.174" x="1679.869" y="662.3784"/><text fill="#000000" font-family="Segoe UI" font-size="11.4127" lengthAdjust="spacing" textLength="110.6159" x="1688.648" y="683.473">Exporta&#231;&#227;o XLSX/PDF</text></g><!--entity D_NOTIFY--><g id="elem_D_NOTIFY"><rect fill="#EEF3FA" height="32.7379" rx="2.1948" ry="2.1948" style="stroke:#1F3A68;stroke-width:0.4389519178822258;" width="133.4414" x="1677.2353" y="867.8079"/><text fill="#000000" font-family="Segoe UI" font-size="11.4127" lengthAdjust="spacing" textLength="115.8833" x="1686.0143" y="888.9025">Eventos e Notifica&#231;&#245;es</text></g><!--entity D_ADM--><g id="elem_D_ADM"><rect fill="#EEF3FA" height="47.9178" rx="2.1948" ry="2.1948" style="stroke:#1F3A68;stroke-width:0.4389519178822258;" width="93.0578" x="1697.4271" y="441.1467"/><text fill="#000000" font-family="Segoe UI" font-size="11.4127" lengthAdjust="spacing" textLength="55.3079" x="1706.2061" y="462.2412">Admiss&#245;es</text><text fill="#000000" font-family="Segoe UI" font-size="11.4127" lengthAdjust="spacing" textLength="71.9881" x="1709.7177" y="477.4211">e Onboarding</text></g><!--entity D_WELL--><g id="elem_D_WELL"><rect fill="#EEF3FA" height="47.9178" rx="2.1948" ry="2.1948" style="stroke:#1F3A68;stroke-width:0.4389519178822258;" width="115.8833" x="1686.0143" y="788.7966"/><text fill="#000000" font-family="Segoe UI" font-size="11.4127" lengthAdjust="spacing" textLength="50.9184" x="1694.7934" y="809.8912">Wellbeing</text><text fill="#000000" font-family="Segoe UI" font-size="11.4127" lengthAdjust="spacing" textLength="94.8136" x="1698.305" y="825.071">e Reporte Sens&#237;vel</text></g><!--entity D_HB--><g id="elem_D_HB"><rect fill="#EEF3FA" height="32.7379" rx="2.1948" ry="2.1948" style="stroke:#1F3A68;stroke-width:0.4389519178822258;" width="115.8833" x="1686.0143" y="725.5875"/><text fill="#000000" font-family="Segoe UI" font-size="11.4127" lengthAdjust="spacing" textLength="98.3252" x="1694.7934" y="746.6821">Banco de Horas BR</text></g><!--entity D_TALENT--><g id="elem_D_TALENT"><rect fill="#EEF3FA" height="32.7379" rx="2.1948" ry="2.1948" style="stroke:#1F3A68;stroke-width:0.4389519178822258;" width="124.6623" x="1681.6248" y="931.017"/><text fill="#000000" font-family="Segoe UI" font-size="11.4127" lengthAdjust="spacing" textLength="107.1043" x="1690.4038" y="952.1116">Forma&#231;&#227;o + Carreira</text></g><!--entity USER--><g id="elem_USER"><ellipse cx="43.4562" cy="750.6078" fill="#F1F1F1" rx="7.0232" ry="7.0232" style="stroke:#181818;stroke-width:0.4389519178822258;"/><path d="M43.4562,757.631 L43.4562,781.3344 M32.0435,764.6542 L54.869,764.6542 M43.4562,781.3344 L32.0435,794.503 M43.4562,781.3344 L54.869,794.503 " fill="none" style="stroke:#181818;stroke-width:0.4389519178822258;"/><text fill="#000000" font-family="Segoe UI" font-size="11.4127" lengthAdjust="spacing" textLength="76.3776" x="5.2674" y="808.1353">Utilizador Web</text></g><!--entity DB--><g id="elem_DB"><path d="M1958.6035,14.0465 C1958.6035,5.2674 2055.6118,5.2674 2055.6118,5.2674 C2055.6118,5.2674 2152.6202,5.2674 2152.6202,14.0465 L2152.6202,37.1274 C2152.6202,45.9065 2055.6118,45.9065 2055.6118,45.9065 C2055.6118,45.9065 1958.6035,45.9065 1958.6035,37.1274 L1958.6035,14.0465 " fill="#F1F1F1" style="stroke:#181818;stroke-width:0.4389519178822258;"/><path d="M1958.6035,14.0465 C1958.6035,22.8255 2055.6118,22.8255 2055.6118,22.8255 C2055.6118,22.8255 2152.6202,22.8255 2152.6202,14.0465 " fill="none" style="stroke:#181818;stroke-width:0.4389519178822258;"/><text fill="#000000" font-family="Segoe UI" font-size="11.4127" lengthAdjust="spacing" textLength="176.4587" x="1967.3825" y="38.6526">PostgreSQL (Dados Transacionais)</text></g><!--entity ORM--><g id="elem_ORM"><rect fill="#EEF3FA" height="32.7379" rx="2.1948" ry="2.1948" style="stroke:#1F3A68;stroke-width:0.4389519178822258;" width="81.6451" x="1703.1334" y="9.218"/><text fill="#000000" font-family="Segoe UI" font-size="11.4127" lengthAdjust="spacing" textLength="64.087" x="1711.9125" y="30.3125">Prisma ORM</text></g><!--entity OAUTH--><g id="elem_OAUTH"><path d="M1669.584,1127.5199 C1672.3415,1122.4247 1677.0928,1122.2375 1679.7547,1127.6128 C1683.0564,1122.0407 1686.8761,1120.5196 1691.8391,1125.7552 C1694.563,1121.6999 1698.4478,1121.393 1700.838,1126.0979 C1703.7846,1120.3646 1708.5384,1118.365 1712.9728,1124.588 C1715.7273,1118.5675 1720.1862,1118.9638 1724.2069,1123.2013 C1728.1914,1118.7614 1731.8647,1118.4267 1735.1544,1123.9638 C1737.4956,1120.0827 1741.2314,1119.0243 1744.2251,1123.2322 C1746.6632,1117.9297 1751.8344,1118.2843 1754.9001,1122.5306 C1759.145,1117.4748 1763.6559,1117.7979 1766.0673,1124.3018 C1769.2071,1119.7738 1773.8728,1118.0597 1777.2148,1124.0882 C1781.3567,1119.8775 1784.7765,1120.3259 1788.0882,1125.0936 C1792.4233,1120.5272 1796.2818,1120.8458 1798.8594,1126.8796 C1802.361,1122.6667 1807.3198,1122.8168 1809.9106,1127.9559 C1813.1498,1122.3722 1818.6278,1122.9591 1820.9529,1128.8366 C1829.4753,1130.1703 1830.9001,1135.5007 1826.6615,1142.261 C1831.512,1149.3989 1829.6935,1154.3556 1821.1677,1156.2344 C1817.9354,1162.0769 1812.6321,1161.2206 1809.8567,1155.7766 C1806.9672,1161.0853 1802.6672,1163.1143 1798.281,1157.3398 C1795.2728,1161.9792 1792.1242,1163.244 1788.0447,1158.5098 C1785.4819,1164.1783 1780.5002,1164.5249 1776.4123,1160.3036 C1773.9052,1165.3314 1770.4723,1166.35 1766.538,1161.7704 C1763.1765,1166.4909 1757.9583,1166.4008 1755.1838,1161.1051 C1752.908,1166.3492 1748.3194,1166.5977 1745.0474,1162.1466 C1741.6459,1167.6911 1737.7525,1167.1777 1734.7037,1161.8121 C1730.1314,1166.8884 1725.4371,1166.1004 1722.7532,1159.8241 C1719.2656,1164.8563 1714.6455,1165.575 1711.6073,1159.3781 C1709.1792,1163.1432 1704.6125,1163.9938 1702.5621,1158.9886 C1698.8447,1164.0429 1694.0013,1163.6955 1691.9408,1157.4335 C1687.319,1161.9678 1682.4153,1162.0553 1679.3197,1155.6695 C1675.4452,1160.366 1672.0292,1159.9181 1669.424,1154.4355 C1662.3522,1153.1076 1660.1565,1147.8391 1664.0096,1141.8218 C1659.194,1135.5868 1661.7723,1128.8332 1669.584,1127.5199 " fill="#F1F1F1" style="stroke:#181818;stroke-width:0.4389519178822258;"/><text fill="#000000" font-family="Segoe UI" font-size="11.4127" lengthAdjust="spacing" textLength="138.7088" x="1674.6016" y="1145.2504">OAuth (Microsoft/Firebase)</text></g><!--entity STORE--><g id="elem_STORE"><path d="M2007.9294,921.7042 C2009.7021,916.4527 2014.5737,916.7942 2017.514,920.4474 C2020.2902,915.1336 2024.445,915.5499 2027.5099,920.1565 C2029.4173,915.6062 2032.96,913.6656 2036.8525,918.0901 C2039.3788,913.013 2043.0097,912.8769 2046.1412,917.5113 C2048.4844,911.5659 2051.9223,910.9199 2056.0958,915.8334 C2060.2836,910.4768 2064.9646,912.1827 2067.327,917.7159 C2070.8405,913.4175 2074.0963,914.2345 2076.194,919.0876 C2079.838,914.8017 2083.0911,914.6552 2086.7495,919.0701 C2090.4583,914.4932 2094.4414,915.1735 2096.3516,920.7679 C2099.8687,916.6058 2103.0305,918.0902 2105.2738,922.15 C2111.183,924.8754 2111.8659,928.576 2108.2337,933.7384 C2113.1114,936.1971 2113.9695,940.8097 2108.9055,943.9241 C2113.6183,948.0655 2112.6918,951.5446 2107.9557,954.8659 C2112.3649,958.4027 2111.3162,961.4612 2107.0811,964.1869 C2104.8517,970.6077 2099.1391,971.3796 2095.5236,965.488 C2093.1368,970.4104 2089.3957,971.09 2086.1454,966.3239 C2083.0785,971.0661 2079.6851,970.2262 2076.5503,966.3999 C2073.6613,970.3296 2069.3918,970.3698 2066.7851,966.0651 C2062.9078,970.4702 2059.4565,970.991 2056.1804,965.4256 C2052.9688,969.3832 2049.7083,969.4955 2046.4186,965.5218 C2043.731,969.9161 2038.9517,970.8287 2036.3273,965.4565 C2034.251,970.2508 2029.7087,969.9723 2027.1768,965.9282 C2023.3087,970.5362 2019.6259,969.7639 2017.1809,964.4888 C2014.5762,970.4616 2009.8739,969.7896 2006.3017,965.5162 C1999.6634,963.774 1998.0043,958.6739 2002.6376,953.4959 C1997.1835,951.1826 1996.0241,947.5468 2000.6909,943.301 C1997.1036,939.6202 1998.5585,935.0558 2003.4296,933.8176 C1998.7501,928.3239 2000.5334,922.7122 2007.9294,921.7042 " fill="#F1F1F1" style="stroke:#181818;stroke-width:0.4389519178822258;"/><text fill="#000000" font-family="Segoe UI" font-size="11.4127" lengthAdjust="spacing" textLength="86.9125" x="2012.1556" y="939.8209">Storage Uploads</text><text fill="#000000" font-family="Segoe UI" font-size="11.4127" lengthAdjust="spacing" textLength="61.4533" x="2015.6672" y="955.0008">e Relat&#243;rios</text></g><!--entity OBS--><g id="elem_OBS"><path d="M1081.6023,1128.223 C1084.6243,1121.5405 1089.3065,1121.1238 1094.4401,1125.8461 C1097.2328,1120.3869 1100.5754,1119.0483 1105.2396,1123.8827 C1109.6053,1119.2116 1113.355,1120.7566 1115.9008,1125.8665 C1119.8877,1122.0966 1123.0515,1122.5905 1125.7322,1127.3687 C1135.7149,1125.334 1139.4728,1132.9685 1135.7453,1141.0028 C1140.2774,1149.2947 1135.5899,1155.4126 1126.8448,1155.6198 C1125.0256,1163.1776 1120.9428,1164.3513 1114.8776,1159.8245 C1113.3545,1166.3912 1109.2816,1168.5006 1103.7969,1163.6792 C1098.4472,1166.8726 1094.3032,1164.8661 1094.3906,1158.3901 C1089.4536,1162.5879 1084.6081,1161.6127 1082.2587,1155.3804 C1072.903,1152.7328 1073.4498,1147.4331 1078.0568,1140.77 C1072.9631,1135.1129 1075.2891,1130.6568 1081.6023,1128.223 " fill="#F1F1F1" style="stroke:#181818;stroke-width:0.4389519178822258;"/><text fill="#000000" font-family="Segoe UI" font-size="11.4127" lengthAdjust="spacing" textLength="31.6045" x="1087.7229" y="1145.2504">Sentry</text></g><!--entity HOLIDAYS--><g id="elem_HOLIDAYS"><path d="M1676.4904,80.9333 C1679.1413,76.4027 1682.0666,76.0747 1685.6933,79.8525 C1689.0078,74.9405 1692.2796,75.0426 1695.9392,79.4742 C1698.7979,74.5825 1701.6879,74.618 1705.401,78.5589 C1708.293,73.1777 1712.6468,72.9608 1715.6023,78.4997 C1718.432,73.0063 1722.2036,73.8231 1725.6668,77.8284 C1726.8818,72.6245 1731.0518,71.5243 1734.582,75.6057 C1738.716,70.4076 1741.8979,71.0627 1745.1324,76.4983 C1748.2433,71.8059 1752.6298,72.1309 1755.7085,76.5358 C1758.6703,72.8173 1763.3202,72.6584 1765.5516,77.3869 C1768.6847,72.5349 1771.6667,73.6313 1774.5941,77.5979 C1777.5811,73.1269 1782.087,73.5774 1784.7836,77.9331 C1787.4317,74.0774 1791.7522,73.8192 1793.9796,78.392 C1798.3622,73.3616 1802.1735,74.5559 1804.9368,80.074 C1807.1007,76.0719 1810.3611,76.1495 1813.0799,79.4556 C1819.6642,82.5997 1822.3174,87.3553 1816.1577,93.327 C1822.5719,99.1096 1822.3764,104.15 1814.4101,108.2483 C1811.1838,113.8976 1807.4621,114.6995 1803.4827,108.9717 C1800.1419,113.4115 1797.4407,112.3404 1794.8219,108.2395 C1791.7911,112.8404 1786.4576,113.0306 1783.7898,107.8308 C1780.9791,112.3555 1778.0086,113.6107 1773.9152,109.2576 C1770.8405,112.8984 1768.2444,112.7379 1765.382,109.0117 C1762.4901,114.5547 1759.1161,113.9221 1755.1466,110.2023 C1751.5024,114.0098 1748.4476,114.2741 1745.7941,109.1634 C1742.8197,113.7445 1738.5067,114.7937 1735.2439,109.4707 C1732.627,113.9519 1728.0136,113.4177 1725.7247,109.1151 C1722.6218,113.3345 1718.7868,112.7826 1716.1426,108.5924 C1713.9275,114.2119 1708.9845,114.5313 1706.038,109.2717 C1702.4633,114.399 1697.7535,113.9343 1694.9285,108.4843 C1692.3711,112.019 1688.6466,112.2156 1686.0967,108.4751 C1682.5282,113.1513 1678.6145,112.385 1675.9172,107.5433 C1668.7754,105.6519 1666.1977,100.223 1670.4984,93.815 C1665.315,87.1445 1668.9724,81.6956 1676.4904,80.9333 " fill="#F1F1F1" style="stroke:#181818;stroke-width:0.4389519178822258;"/><text fill="#000000" font-family="Segoe UI" font-size="11.4127" lengthAdjust="spacing" textLength="125.5402" x="1681.1858" y="97.9111">API Feriados Nager.Date</text></g><g id="elem_GMN82"><path d="M1581.9827,144.4152 L1581.9827,183.5539 A0,0 0 0 0 1581.9827,183.5539 L1905.9292,183.5539 A0,0 0 0 0 1905.9292,183.5539 L1905.9292,153.1942 L1897.1502,144.4152 L1747.9065,144.4152 L1744.3949,114.0046 L1740.8833,144.4152 L1581.9827,144.4152 A0,0 0 0 0 1581.9827,144.4152 " fill="#FEFFDD" style="stroke:#181818;stroke-width:0.4389519178822258;"/><path d="M1897.1502,144.4152 L1897.1502,153.1942 L1905.9292,153.1942 L1897.1502,144.4152 " fill="#FEFFDD" style="stroke:#181818;stroke-width:0.4389519178822258;"/><text fill="#000000" font-family="Segoe UI" font-size="11.4127" lengthAdjust="spacing" textLength="304.6326" x="1587.2501" y="161.1202">Arquitetura de produto completo: separa&#231;&#227;o por camadas,</text><text fill="#000000" font-family="Segoe UI" font-size="11.4127" lengthAdjust="spacing" textLength="305.5105" x="1587.2501" y="176.3001">governan&#231;a de acesso, compliance PT/BR e rastreabilidade.</text></g><!--link USER to FE_ROUTER--><g id="link_USER_FE_ROUTER"><path d="M81.689,776.9449 C97.7809,776.9449 111.4938,776.9449 128.8324,776.9449 " fill="none" id="USER-to-FE_ROUTER" style="stroke:#1F3A68;stroke-width:0.8779038357644516;"/><polygon fill="#1F3A68" points="134.0998,776.9449,126.1987,773.4333,129.7103,776.9449,126.1987,780.4565,134.0998,776.9449" style="stroke:#1F3A68;stroke-width:0.8779038357644516;"/></g><!--link FE_ROUTER to FE_CTX--><g id="link_FE_ROUTER_FE_CTX"><path d="M238.1402,776.9449 C255.6895,776.9449 270.2539,776.9449 288.7162,776.9449 " fill="none" id="FE_ROUTER-to-FE_CTX" style="stroke:#1F3A68;stroke-width:0.8779038357644516;"/><polygon fill="#1F3A68" points="293.9837,776.9449,286.0825,773.4333,289.5941,776.9449,286.0825,780.4565,293.9837,776.9449" style="stroke:#1F3A68;stroke-width:0.8779038357644516;"/></g><!--link FE_CTX to FE_PAGES--><g id="link_FE_CTX_FE_PAGES"><path d="M421.3938,801.1224 C421.3938,818.8824 421.3938,839.9345 421.3938,839.9345 C421.3938,839.9345 445.5625,839.9345 475.5693,839.9345 " fill="none" id="FE_CTX-to-FE_PAGES" style="stroke:#1F3A68;stroke-width:0.8779038357644516;"/><polygon fill="#1F3A68" points="480.8367,839.9345,472.9356,836.4229,476.4472,839.9345,472.9356,843.4461,480.8367,839.9345" style="stroke:#1F3A68;stroke-width:0.8779038357644516;"/></g><!--link FE_I18N to FE_PAGES--><g id="link_FE_I18N_FE_PAGES"><path d="M413.5717,848.0551 C434.7116,848.0551 453.8324,848.0551 475.7536,848.0551 " fill="none" id="FE_I18N-to-FE_PAGES" style="stroke:#1F3A68;stroke-width:0.8779038357644516;"/><polygon fill="#1F3A68" points="481.0211,848.0551,473.1199,844.5435,476.6316,848.0551,473.1199,851.5667,481.0211,848.0551" style="stroke:#1F3A68;stroke-width:0.8779038357644516;"/></g><!--link FE_PAGES to FE_API--><g id="link_FE_PAGES_FE_API"><path d="M606.772,848.0551 C624.0579,848.0551 637.3494,848.0551 653.9681,848.0551 " fill="none" id="FE_PAGES-to-FE_API" style="stroke:#1F3A68;stroke-width:0.8779038357644516;"/><polygon fill="#1F3A68" points="659.2355,848.0551,651.3344,844.5435,654.846,848.0551,651.3344,851.5667,659.2355,848.0551" style="stroke:#1F3A68;stroke-width:0.8779038357644516;"/></g><!--link FE_STATE to FE_PAGES--><g id="link_FE_STATE_FE_PAGES"><path d="M417.8822,894.9878 C417.8822,877.2278 417.8822,856.1757 417.8822,856.1757 C417.8822,856.1757 444.114,856.1757 475.6044,856.1757 " fill="none" id="FE_STATE-to-FE_PAGES" style="stroke:#1F3A68;stroke-width:0.8779038357644516;"/><polygon fill="#1F3A68" points="480.8718,856.1757,472.9707,852.6641,476.4823,856.1757,472.9707,859.6873,480.8718,856.1757" style="stroke:#1F3A68;stroke-width:0.8779038357644516;"/></g><!--link FE_API to BE_SEC--><g id="link_FE_API_BE_SEC"><path d="M763.9783,848.0551 C783.2131,848.0551 800.1918,848.0551 821.3668,848.0551 " fill="none" id="FE_API-to-BE_SEC" style="stroke:#1F3A68;stroke-width:0.8779038357644516;"/><polygon fill="#1F3A68" points="826.6343,848.0551,818.7331,844.5435,822.2447,848.0551,818.7331,851.5667,826.6343,848.0551" style="stroke:#1F3A68;stroke-width:0.8779038357644516;"/></g><!--link BE_SEC to BE_AUTH--><g id="link_BE_SEC_BE_AUTH"><path d="M989.6171,848.0551 C1007.0962,848.0551 1020.0277,848.0551 1036.6113,848.0551 " fill="none" id="BE_SEC-to-BE_AUTH" style="stroke:#1F3A68;stroke-width:0.8779038357644516;"/><polygon fill="#1F3A68" points="1041.8787,848.0551,1033.9776,844.5435,1037.4892,848.0551,1033.9776,851.5667,1041.8787,848.0551" style="stroke:#1F3A68;stroke-width:0.8779038357644516;"/></g><!--link BE_AUTH to BE_SCOPE--><g id="link_BE_AUTH_BE_SCOPE"><path d="M1165.2066,848.0551 C1182.2468,848.0551 1195.4417,848.0551 1212.3852,848.0551 " fill="none" id="BE_AUTH-to-BE_SCOPE" style="stroke:#1F3A68;stroke-width:0.8779038357644516;"/><polygon fill="#1F3A68" points="1217.6526,848.0551,1209.7515,844.5435,1213.2631,848.0551,1209.7515,851.5667,1217.6526,848.0551" style="stroke:#1F3A68;stroke-width:0.8779038357644516;"/></g><!--link BE_SCOPE to BE_VALID--><g id="link_BE_SCOPE_BE_VALID"><path d="M1338.0132,859.9068 C1372.1725,859.9068 1408.1578,859.9068 1408.1578,859.9068 C1408.1578,859.9068 1408.1578,965.7118 1408.1578,1016.042 " fill="none" id="BE_SCOPE-to-BE_VALID" style="stroke:#1F3A68;stroke-width:0.8779038357644516;"/><polygon fill="#1F3A68" points="1408.1578,1021.3094,1411.6694,1013.4083,1408.1578,1016.9199,1404.6461,1013.4083,1408.1578,1021.3094" style="stroke:#1F3A68;stroke-width:0.8779038357644516;"/></g><!--link BE_VALID to BE_AUDIT--><g id="link_BE_VALID_BE_AUDIT"><path d="M1524.0411,1045.5835 C1570.0959,1045.5835 1626.7207,1045.5835 1673.1091,1045.5835 " fill="none" id="BE_VALID-to-BE_AUDIT" style="stroke:#1F3A68;stroke-width:0.8779038357644516;"/><polygon fill="#1F3A68" points="1678.3766,1045.5835,1670.4754,1042.0719,1673.987,1045.5835,1670.4754,1049.0951,1678.3766,1045.5835" style="stroke:#1F3A68;stroke-width:0.8779038357644516;"/></g><!--link BE_SCOPE to ROUTES--><g id="link_BE_SCOPE_ROUTES"><path d="M1278.228,823.7635 C1278.228,715.5443 1278.228,282.685 1278.228,282.685 C1278.228,282.685 1320.8634,282.685 1364.8321,282.685 C1366.2061,282.685 1362.314,282.685 1363.6894,282.685 " fill="none" id="BE_SCOPE-to-ROUTES" style="stroke:#1F3A68;stroke-width:0.8779038357644516;"/><polygon fill="#1F3A68" points="1368.9568,282.685,1361.0557,279.1734,1364.5673,282.685,1361.0557,286.1967,1368.9568,282.685" style="stroke:#1F3A68;stroke-width:0.8779038357644516;"/></g><!--link R_AUTH to OAUTH--><g id="link_R_AUTH_OAUTH"><path d="M1480.023,907.3136 C1531.7139,907.3136 1665.3836,907.3136 1665.3836,907.3136 C1665.3836,907.3136 1665.3836,1057.4001 1665.3836,1114.4462 " fill="none" id="R_AUTH-to-OAUTH" style="stroke:#1F3A68;stroke-width:0.8779038357644516;"/><polygon fill="#1F3A68" points="1665.3836,1119.7137,1668.8952,1111.8125,1665.3836,1115.3241,1661.872,1111.8125,1665.3836,1119.7137" style="stroke:#1F3A68;stroke-width:0.8779038357644516;"/></g><!--link R_PROFILE to D_APPROVAL--><g id="link_R_PROFILE_D_APPROVAL"><path d="M1485.6591,319.7062 C1531.6086,319.7062 1623.4637,319.7062 1684.6448,319.7062 " fill="none" id="R_PROFILE-to-D_APPROVAL" style="stroke:#1F3A68;stroke-width:0.8779038357644516;"/><polygon fill="#1F3A68" points="1689.9122,319.7062,1682.0111,316.1946,1685.5227,319.7062,1682.0111,323.2179,1689.9122,319.7062" style="stroke:#1F3A68;stroke-width:0.8779038357644516;"/></g><!--link R_VAC to D_APPROVAL--><g id="link_R_VAC_D_APPROVAL"><path d="M1490.6807,376.9017 C1490.6807,356.8504 1490.6807,325.5531 1490.6807,325.5531 C1490.6807,325.5531 1610.2776,325.5531 1684.6623,325.5531 " fill="none" id="R_VAC-to-D_APPROVAL" style="stroke:#1F3A68;stroke-width:0.8779038357644516;"/><polygon fill="#1F3A68" points="1689.9298,325.5531,1682.0286,322.0415,1685.5402,325.5531,1682.0286,329.0647,1689.9298,325.5531" style="stroke:#1F3A68;stroke-width:0.8779038357644516;"/></g><!--link R_VAC to D_POLICY--><g id="link_R_VAC_D_POLICY"><path d="M1492.5331,387.8843 C1535.1465,387.8843 1605.8617,387.8843 1663.18,387.8843 " fill="none" id="R_VAC-to-D_POLICY" style="stroke:#1F3A68;stroke-width:0.8779038357644516;"/><polygon fill="#1F3A68" points="1668.4475,387.8843,1660.5463,384.3726,1664.0579,387.8843,1660.5463,391.3959,1668.4475,387.8843" style="stroke:#1F3A68;stroke-width:0.8779038357644516;"/></g><!--link R_VAC to HOLIDAYS--><g id="link_R_VAC_HOLIDAYS"><path d="M1488.047,376.7349 C1488.047,313.7892 1488.047,93.0578 1488.047,93.0578 C1488.047,93.0578 1587.1623,93.0578 1662.6006,93.0578 " fill="none" id="R_VAC-to-HOLIDAYS" style="stroke:#1F3A68;stroke-width:0.8779038357644516;"/><polygon fill="#1F3A68" points="1667.868,93.0578,1659.9669,89.5462,1663.4785,93.0578,1659.9669,96.5694,1667.868,93.0578" style="stroke:#1F3A68;stroke-width:0.8779038357644516;"/></g><!--link R_HB to D_POLICY--><g id="link_R_HB_D_POLICY"><path d="M1495.1844,575.027 C1555.7773,575.027 1673.2847,575.027 1673.2847,575.027 C1673.2847,575.027 1673.2847,466.8166 1673.2847,415.8367 " fill="none" id="R_HB-to-D_POLICY" style="stroke:#1F3A68;stroke-width:0.8779038357644516;"/><polygon fill="#1F3A68" points="1673.2847,410.5693,1669.7731,418.4704,1673.2847,414.9588,1676.7963,418.4704,1673.2847,410.5693" style="stroke:#1F3A68;stroke-width:0.8779038357644516;"/></g><!--link R_HB to D_HB--><g id="link_R_HB_D_HB"><path d="M1495.079,592.8485 C1505.1749,592.8485 1513.5062,592.8485 1513.5062,592.8485 C1513.5062,592.8485 1513.5062,734.3666 1513.5062,734.3666 C1513.5062,734.3666 1612.2704,734.3666 1680.5362,734.3666 " fill="none" id="R_HB-to-D_HB" style="stroke:#1F3A68;stroke-width:0.8779038357644516;"/><polygon fill="#1F3A68" points="1685.8036,734.3666,1677.9025,730.8549,1681.4141,734.3666,1677.9025,737.8782,1685.8036,734.3666" style="stroke:#1F3A68;stroke-width:0.8779038357644516;"/></g><!--link R_HB to D_NOTIFY--><g id="link_R_HB_D_NOTIFY"><path d="M1495.2195,596.0089 C1501.7072,596.0089 1506.483,596.0089 1506.483,596.0089 C1506.483,596.0089 1506.483,877.4649 1506.483,877.4649 C1506.483,877.4649 1601.6653,877.4649 1671.9064,877.4649 " fill="none" id="R_HB-to-D_NOTIFY" style="stroke:#1F3A68;stroke-width:0.8779038357644516;"/><polygon fill="#1F3A68" points="1677.1738,877.4649,1669.2727,873.9533,1672.7843,877.4649,1669.2727,880.9765,1677.1738,877.4649" style="stroke:#1F3A68;stroke-width:0.8779038357644516;"/></g><!--link R_PERM to D_PERM--><g id="link_R_PERM_D_PERM"><path d="M1499.7319,532.0097 C1569.7096,532.0097 1707.523,532.0097 1707.523,532.0097 C1707.523,532.0097 1707.523,555.8712 1707.523,577.9417 " fill="none" id="R_PERM-to-D_PERM" style="stroke:#1F3A68;stroke-width:0.8779038357644516;"/><polygon fill="#1F3A68" points="1707.523,583.2091,1711.0346,575.3079,1707.523,578.8196,1704.0113,575.3079,1707.523,583.2091" style="stroke:#1F3A68;stroke-width:0.8779038357644516;"/></g><!--link R_PERM to D_AUDIT--><g id="link_R_PERM_D_AUDIT"><path d="M1499.7407,528.0592 C1556.5323,528.0592 1654.4537,528.0592 1706.6363,528.0592 " fill="none" id="R_PERM-to-D_AUDIT" style="stroke:#1F3A68;stroke-width:0.8779038357644516;"/><polygon fill="#1F3A68" points="1711.9037,528.0592,1704.0026,524.5475,1707.5142,528.0592,1704.0026,531.5708,1711.9037,528.0592" style="stroke:#1F3A68;stroke-width:0.8779038357644516;"/></g><!--link R_HB to D_EXPORT--><g id="link_R_HB_D_EXPORT"><path d="M1495.2546,589.688 C1559.5259,589.688 1689.087,589.688 1689.087,589.688 C1689.087,589.688 1689.087,631.3709 1689.087,657.0408 " fill="none" id="R_HB-to-D_EXPORT" style="stroke:#1F3A68;stroke-width:0.8779038357644516;"/><polygon fill="#1F3A68" points="1689.087,662.3082,1692.5986,654.4071,1689.087,657.9187,1685.5754,654.4071,1689.087,662.3082" style="stroke:#1F3A68;stroke-width:0.8779038357644516;"/></g><!--link R_VAC to D_EXPORT--><g id="link_R_VAC_D_EXPORT"><path d="M1492.6209,398.7176 C1520.3363,398.7176 1555.6456,398.7176 1555.6456,398.7176 C1555.6456,398.7176 1555.6456,677.7418 1555.6456,677.7418 C1555.6456,677.7418 1619.8555,677.7418 1674.4084,677.7418 " fill="none" id="R_VAC-to-D_EXPORT" style="stroke:#1F3A68;stroke-width:0.8779038357644516;"/><polygon fill="#1F3A68" points="1679.6759,677.7418,1671.7747,674.2301,1675.2863,677.7418,1671.7747,681.2534,1679.6759,677.7418" style="stroke:#1F3A68;stroke-width:0.8779038357644516;"/></g><!--link R_NOTIF to D_NOTIFY--><g id="link_R_NOTIF_D_NOTIFY"><path d="M1499.6178,710.2242 C1564.1349,710.2242 1684.6975,710.2242 1684.6975,710.2242 C1684.6975,710.2242 1684.6975,819.1545 1684.6975,862.4264 " fill="none" id="R_NOTIF-to-D_NOTIFY" style="stroke:#1F3A68;stroke-width:0.8779038357644516;"/><polygon fill="#1F3A68" points="1684.6975,867.6938,1688.2091,859.7927,1684.6975,863.3043,1681.1858,859.7927,1684.6975,867.6938" style="stroke:#1F3A68;stroke-width:0.8779038357644516;"/></g><!--link R_TRN to D_NOTIFY--><g id="link_R_TRN_D_NOTIFY"><path d="M1490.8387,768.3151 C1551.8706,768.3151 1682.0637,768.3151 1682.0637,768.3151 C1682.0637,768.3151 1682.0637,830.5409 1682.0637,862.4439 " fill="none" id="R_TRN-to-D_NOTIFY" style="stroke:#1F3A68;stroke-width:0.8779038357644516;"/><polygon fill="#1F3A68" points="1682.0637,867.7114,1685.5754,859.8102,1682.0637,863.3219,1678.5521,859.8102,1682.0637,867.7114" style="stroke:#1F3A68;stroke-width:0.8779038357644516;"/></g><!--link R_TRN to D_TALENT--><g id="link_R_TRN_D_TALENT"><path d="M1490.7597,778.5515 C1497.6513,778.5515 1502.9714,778.5515 1502.9714,778.5515 C1502.9714,778.5515 1502.9714,935.1168 1502.9714,935.1168 C1502.9714,935.1168 1604.9136,935.1168 1676.3135,935.1168 " fill="none" id="R_TRN-to-D_TALENT" style="stroke:#1F3A68;stroke-width:0.8779038357644516;"/><polygon fill="#1F3A68" points="1681.5809,935.1168,1673.6798,931.6052,1677.1914,935.1168,1673.6798,938.6284,1681.5809,935.1168" style="stroke:#1F3A68;stroke-width:0.8779038357644516;"/></g><!--link R_CAR to D_TALENT--><g id="link_R_CAR_D_TALENT"><path d="M1488.9249,852.1549 C1488.9249,881.3277 1488.9249,939.2079 1488.9249,939.2079 C1488.9249,939.2079 1600.7962,939.2079 1676.3047,939.2079 " fill="none" id="R_CAR-to-D_TALENT" style="stroke:#1F3A68;stroke-width:0.8779038357644516;"/><polygon fill="#1F3A68" points="1681.5721,939.2079,1673.671,935.6962,1677.1826,939.2079,1673.671,942.7195,1681.5721,939.2079" style="stroke:#1F3A68;stroke-width:0.8779038357644516;"/></g><!--link R_USERS to D_ADM--><g id="link_R_USERS_D_ADM"><path d="M1529.4314,456.9489 C1581.6491,456.9489 1646.4911,456.9489 1692.1245,456.9489 " fill="none" id="R_USERS-to-D_ADM" style="stroke:#1F3A68;stroke-width:0.8779038357644516;"/><polygon fill="#1F3A68" points="1697.392,456.9489,1689.4908,453.4373,1693.0024,456.9489,1689.4908,460.4606,1697.392,456.9489" style="stroke:#1F3A68;stroke-width:0.8779038357644516;"/></g><!--link R_USERS to D_PERM--><g id="link_R_USERS_D_PERM"><path d="M1517.0178,472.9795 C1517.0178,507.9639 1517.0178,586.5276 1517.0178,586.5276 C1517.0178,586.5276 1631.2243,586.5276 1696.8038,586.5276 " fill="none" id="R_USERS-to-D_PERM" style="stroke:#1F3A68;stroke-width:0.8779038357644516;"/><polygon fill="#1F3A68" points="1702.0712,586.5276,1694.17,583.0159,1697.6817,586.5276,1694.17,590.0392,1702.0712,586.5276" style="stroke:#1F3A68;stroke-width:0.8779038357644516;"/></g><!--link R_USERS to D_AUDIT--><g id="link_R_USERS_D_AUDIT"><path d="M1520.5294,472.8741 C1520.5294,492.8816 1520.5294,524.1086 1520.5294,524.1086 C1520.5294,524.1086 1644.5685,524.1086 1706.4431,524.1086 " fill="none" id="R_USERS-to-D_AUDIT" style="stroke:#1F3A68;stroke-width:0.8779038357644516;"/><polygon fill="#1F3A68" points="1711.7106,524.1086,1703.8094,520.597,1707.321,524.1086,1703.8094,527.6202,1711.7106,524.1086" style="stroke:#1F3A68;stroke-width:0.8779038357644516;"/></g><!--link R_WELL to D_WELL--><g id="link_R_WELL_D_WELL"><path d="M1493.0511,647.0151 C1502.3568,647.0151 1509.9946,647.0151 1509.9946,647.0151 C1509.9946,647.0151 1509.9946,794.9419 1509.9946,794.9419 C1509.9946,794.9419 1611.2608,794.9419 1680.5538,794.9419 " fill="none" id="R_WELL-to-D_WELL" style="stroke:#1F3A68;stroke-width:0.8779038357644516;"/><polygon fill="#1F3A68" points="1685.8212,794.9419,1677.92,791.4303,1681.4317,794.9419,1677.92,798.4535,1685.8212,794.9419" style="stroke:#1F3A68;stroke-width:0.8779038357644516;"/></g><!--link R_FILE to STORE--><g id="link_R_FILE_STORE"><path d="M1479.1012,967.45 C1559.245,967.45 1864.4044,967.45 1993.5177,967.45 " fill="none" id="R_FILE-to-STORE" style="stroke:#1F3A68;stroke-width:0.8779038357644516;"/><polygon fill="#1F3A68" points="1998.7851,967.45,1990.884,963.9384,1994.3956,967.45,1990.884,970.9616,1998.7851,967.45" style="stroke:#1F3A68;stroke-width:0.8779038357644516;"/></g><!--link ROUTES to ORM--><g id="link_ROUTES_ORM"><path d="M1459.9541,258.049 C1459.9541,256.8347 1459.9541,255.5835 1459.9541,254.2971 C1459.9541,249.1514 1459.9541,243.4434 1459.9541,237.2899 C1459.9541,212.6758 1459.9541,180.9343 1459.9541,149.552 C1459.9541,86.7874 1459.9541,25.4592 1459.9541,25.4592 C1459.9541,25.4592 1619.0478,25.4592 1697.6992,25.4592 " fill="none" id="ROUTES-to-ORM" style="stroke:#1F3A68;stroke-width:0.8779038357644516;"/><polygon fill="#1F3A68" points="1702.9666,25.4592,1695.0655,21.9476,1698.5771,25.4592,1695.0655,28.9708,1702.9666,25.4592" style="stroke:#1F3A68;stroke-width:0.8779038357644516;"/></g><!--link ORM to DB--><g id="link_ORM_DB"><path d="M1785.0243,25.4592 C1828.9019,25.4592 1894.7711,25.4592 1953.0902,25.4592 " fill="none" id="ORM-to-DB" style="stroke:#1F3A68;stroke-width:0.8779038357644516;"/><polygon fill="#1F3A68" points="1958.3576,25.4592,1950.4565,21.9476,1953.9681,25.4592,1950.4565,28.9708,1958.3576,25.4592" style="stroke:#1F3A68;stroke-width:0.8779038357644516;"/></g><!--link D_EXPORT to STORE--><g id="link_D_EXPORT_STORE"><path d="M1808.2449,678.6197 C1899.6083,678.6197 2056.0508,678.6197 2056.0508,678.6197 C2056.0508,678.6197 2056.0508,840.3296 2056.0508,908.8148 " fill="none" id="D_EXPORT-to-STORE" style="stroke:#1F3A68;stroke-width:0.8779038357644516;"/><polygon fill="#1F3A68" points="2056.0508,914.0823,2059.5624,906.1811,2056.0508,909.6927,2052.5392,906.1811,2056.0508,914.0823" style="stroke:#1F3A68;stroke-width:0.8779038357644516;"/></g><!--link BE to OBS--><g id="link_BE_OBS"><path d="M908.6305,1098.3385 C908.6305,1098.4063 908.6305,1098.4744 908.6305,1098.5429 C908.6305,1099.0908 908.6305,1099.6617 908.6305,1100.2531 C908.6305,1104.9844 908.6305,1111.0219 908.6305,1116.9691 C908.6305,1128.8636 908.6305,1140.3971 908.6305,1140.3971 C908.6305,1140.3971 1014.7076,1140.3971 1069.0762,1140.3971 " fill="none" id="BE-to-OBS" style="stroke:#1F3A68;stroke-width:0.8779038357644516;"/><polygon fill="#1F3A68" points="1074.3436,1140.3971,1066.4425,1136.8855,1069.9541,1140.3971,1066.4425,1143.9087,1074.3436,1140.3971" style="stroke:#1F3A68;stroke-width:0.8779038357644516;"/></g><!--SRC=[VLRTRjis5BxNKn3fJOOsJRC2HR6B0R9-6W-EfKboaWu12bgYRQ8owP6qatJemmozw5MkXZs1Nso752bBSheRophypk7v_Ovgib18SIJeSgLGHGKf5UNCaoMk2LhZ1tJnxiqRT4yhjVBaPyesME0raYjSyNlAbcY1Qqaw9tDSVbuAlcLLm6ikqFsAgkvvoTSRpWXJkNg46_Hzc2thBcG39l2I_1XGKqRKuuOWBjIATmwg3KKNRzzq9MI1jxMAELDJl2Oe9qjEq6pyF2IdNmWOw1pwGl3x9f8N5_5R_ztxpc7cV1jnKH5XONuS_1o6py86kNaHlu_zk0iDN7Pw5eykFi265gCeVXlxdeTB1QydCqLh-WLg9T0DcPyWBD4iZpBFQzEAJc81aHDMQGGwpGYeefUeWFpcfQ0R_N8DDVp9QCSH-ij3XogYaunl5H40-h35ef8MzIbBPWLSr8C6-g87wBPA5qBA_JT-nn11AH5h2g__4ecY1L5qXrixGN7RDvBk_rvI1eSR22haw_qJezoXK_z3b0ykhIay2SgYl83RNg80boi2pumeyUWK_NJSLnjVl9-Yj3XBYtFu7MKEgELzv0SYTQuXfaWgIBN-DnkRm2OSLp0avn5qKHjHNlX5v7tjrK3NKPS0t42dqSD6G7PwHMYoFphAFlJpLc2s_uwD0qm9NE4x5YHP3lgNf5uJNS0CGmOcT4sLjVCfZuA-9H_Ao1GjyVwxgSjlDyNvY61XQfl0wSgf-hFYigzxnTiCb7pJB-etxchQNXqaQTGtS8rhMZKtQpCfVgmXTNVi3rwPIYs5xGXGl_Odut3eUqN10uhXteBK18A6buE_uRZmGAEJS9teRWD9w7oki6poR9etDxdktODT5ZANXDxnLX81XYWhwor5k79DROr-qgEN3vKsWYzeJImapP9uF8c6e1qkiUPbQM7NVd1afybt1vH6sTKGjU9RSJR7xBF5N8w62EWWog1fdPKYcmuX9NG54MUR6ZCB2lni269SqGNjkprDYd4y1Ehe7U2vsEz9NSy9U6GnDz5a0fYlWuhcHEpe_ZjK4XgenmjXSkMFfyVLz27rEzrqK2BJijTGFl0MzWHJLXM80Ke2BJTKJdczVzBZ8e4bpaSPp1mSrXIpae2f0CCMWvQkYBMJ9fDnyF78oe7vZ0SPS8cWZKjEyPagjltkd3GTFW01ZS1-j4DrEyblpzCmjWhHRPfannex7RW4FwQsU3rFJFMEGl2hNWG9ctFO0wvSu5juvFwDgwYDMVkfDmAJ-wSTgQsYhNDFSmJfDGnnoOKUxinYZziuvc9jOzUKBmIXmgMhy2VHj30z15rKOONdM19TKwcMWkI_Jz1f24mkKG7SAg6Gq1JKZd4uyhe555IkCKgoAtC8Jw-i-RP29uOoqUaLBO7x-KATn_1nfUzfp2I6G2msXsB25m-QRJJjkLQeiTh_8wZT77cHP56h09VRvPMCSYVLf1OJQ0lj-XGCYjSX4B-1NKB_XVx7tFCq2w6piryxMxhzv-HwwpOF9sasgrs0HqBpnqdrBdLxhe_qcbCZj3keUJY9IOfzjYYpBjmV9sssWFjpqDU3qCCsNEvvsS5ea_kMR8siC-c6NlzFQ6Vv86gJgmbr26ebqAITDpjD3Kqx7JthFKaJK4VDJcxNdLPaJ0xD0t__M6GdmH3uK6IsbNCZl1f8hAizaFLL3wuLcHbkQDr8cYRsx7urjG0pYGjtvBbeEkXHewhxt8EbGj2SAyNNdY_-tC9tgOBl7yq8GERL5hujzN3MHF5Va2JwQxdX0BthIxo6ZoFvoblo7H6i_Mh29NnjyLUDPaFWXj9X285ab21uJcl3vQyz_P6cdVWF]--></g></svg>