<?xml version="1.0" encoding="us-ascii" standalone="no"?><svg xmlns="http://www.w3.org/2000/svg" xmlns:xlink="http://www.w3.org/1999/xlink" contentStyleType="text/css" height="339.3542px" preserveAspectRatio="none" style="width:1375px;height:339px;background:#FFFFFF;" version="1.1" viewBox="0 0 1375 339" width="1375.8792px" zoomAndPan="magnify"><defs/><g><!--cluster FE--><g id="cluster_FE"><rect fill="#F8FAFD" height="142.4233" rx="2.1979" ry="2.1979" style="stroke:#AFC2DD;stroke-width:0.879156010230179;" width="304.188" x="93.1905" y="119.4474"/><text fill="#000000" font-family="Segoe UI" font-size="11.429" font-weight="bold" lengthAdjust="spacing" textLength="49.2327" x="220.6682" y="133.5387">Frontend</text></g><!--cluster BE--><g id="cluster_BE"><rect fill="#F8FAFD" height="142.4233" rx="2.1979" ry="2.1979" style="stroke:#AFC2DD;stroke-width:0.879156010230179;" width="487.0524" x="421.9949" y="87.7977"/><text fill="#000000" font-family="Segoe UI" font-size="11.429" font-weight="bold" lengthAdjust="spacing" textLength="66.8159" x="632.1132" y="101.8891">Backend API</text></g><!--entity FE_UI--><g id="elem_FE_UI"><rect fill="#EEF3FA" height="32.7846" rx="2.1979" ry="2.1979" style="stroke:#1F3A68;stroke-width:0.4395780051150895;" width="96.7072" x="107.257" y="183.1862"/><text fill="#000000" font-family="Segoe UI" font-size="11.429" lengthAdjust="spacing" textLength="79.124" x="116.0486" y="204.3108">UI por Dom&#237;nio</text></g><!--entity FE_AUTHZ--><g id="elem_FE_AUTHZ"><rect fill="#EEF3FA" height="32.7846" rx="2.1979" ry="2.1979" style="stroke:#1F3A68;stroke-width:0.4395780051150895;" width="126.5985" x="256.7136" y="214.8358"/><text fill="#000000" font-family="Segoe UI" font-size="11.429" lengthAdjust="spacing" textLength="109.0153" x="265.5051" y="235.9604">Sess&#227;o + Permiss&#245;es</text></g><!--entity FE_API--><g id="elem_FE_API"><rect fill="#EEF3FA" height="32.7846" rx="2.1979" ry="2.1979" style="stroke:#1F3A68;stroke-width:0.4395780051150895;" width="80.8824" x="279.5716" y="151.5365"/><text fill="#000000" font-family="Segoe UI" font-size="11.429" lengthAdjust="spacing" textLength="63.2992" x="288.3632" y="172.6612">Cliente REST</text></g><!--entity BE_SEC_AUTH--><g id="elem_BE_SEC_AUTH"><rect fill="#EEF3FA" height="32.7846" rx="2.1979" ry="2.1979" style="stroke:#1F3A68;stroke-width:0.4395780051150895;" width="109.0153" x="436.0614" y="151.5365"/><text fill="#000000" font-family="Segoe UI" font-size="11.429" lengthAdjust="spacing" textLength="91.4322" x="444.8529" y="172.6612">Seguran&#231;a + Auth</text></g><!--entity BE_SCOPE--><g id="elem_BE_SCOPE"><rect fill="#EEF3FA" height="32.7846" rx="2.1979" ry="2.1979" style="stroke:#1F3A68;stroke-width:0.4395780051150895;" width="120.4444" x="597.8261" y="151.5365"/><text fill="#000000" font-family="Segoe UI" font-size="11.429" lengthAdjust="spacing" textLength="102.8613" x="606.6176" y="172.6612">Valida&#231;&#227;o + Escopo</text></g><!--entity BE_DOMAIN--><g id="elem_BE_DOMAIN"><rect fill="#EEF3FA" height="32.7846" rx="2.1979" ry="2.1979" style="stroke:#1F3A68;stroke-width:0.4395780051150895;" width="123.961" x="771.0198" y="183.1862"/><text fill="#000000" font-family="Segoe UI" font-size="11.429" lengthAdjust="spacing" textLength="106.3779" x="779.8114" y="204.3108">Servi&#231;os de Neg&#243;cio</text></g><!--entity BE_AUD--><g id="elem_BE_AUD"><rect fill="#EEF3FA" height="32.7846" rx="2.1979" ry="2.1979" style="stroke:#1F3A68;stroke-width:0.4395780051150895;" width="64.1784" x="800.9111" y="119.8869"/><text fill="#000000" font-family="Segoe UI" font-size="11.429" lengthAdjust="spacing" textLength="46.5953" x="809.7027" y="141.0116">Auditoria</text></g><!--entity USER--><g id="elem_USER"><ellipse cx="29.8913" cy="173.0759" fill="#F1F1F1" rx="7.0332" ry="7.0332" style="stroke:#181818;stroke-width:0.4395780051150895;"/><path d="M29.8913,180.1091 L29.8913,203.8463 M18.4623,187.1424 L41.3203,187.1424 M29.8913,203.8463 L18.4623,217.0337 M29.8913,203.8463 L41.3203,217.0337 " fill="none" style="stroke:#181818;stroke-width:0.4395780051150895;"/><text fill="#000000" font-family="Segoe UI" font-size="11.429" lengthAdjust="spacing" textLength="49.2327" x="5.2749" y="230.6855">Utilizador</text></g><!--entity DB--><g id="elem_DB"><path d="M1283.5678,153.7344 C1283.5678,144.9429 1322.2506,144.9429 1322.2506,144.9429 C1322.2506,144.9429 1360.9335,144.9429 1360.9335,153.7344 L1360.9335,176.8483 C1360.9335,185.6399 1322.2506,185.6399 1322.2506,185.6399 C1322.2506,185.6399 1283.5678,185.6399 1283.5678,176.8483 L1283.5678,153.7344 " fill="#F1F1F1" style="stroke:#181818;stroke-width:0.4395780051150895;"/><path d="M1283.5678,153.7344 C1283.5678,162.526 1322.2506,162.526 1322.2506,162.526 C1322.2506,162.526 1360.9335,162.526 1360.9335,153.7344 " fill="none" style="stroke:#181818;stroke-width:0.4395780051150895;"/><text fill="#000000" font-family="Segoe UI" font-size="11.429" lengthAdjust="spacing" textLength="59.7826" x="1292.3593" y="178.3757">PostgreSQL</text></g><!--entity ORM--><g id="elem_ORM"><rect fill="#EEF3FA" height="32.7846" rx="2.1979" ry="2.1979" style="stroke:#1F3A68;stroke-width:0.4395780051150895;" width="51.8702" x="1063.3392" y="148.8991"/><text fill="#000000" font-family="Segoe UI" font-size="11.429" lengthAdjust="spacing" textLength="34.2871" x="1072.1308" y="170.0237">Prisma</text></g><!--entity OAUTH--><g id="elem_OAUTH"><path d="M1067.3202,220.6671 C1070.3465,213.975 1075.0354,213.5577 1080.1763,218.2868 C1082.973,212.8197 1086.3203,211.4793 1090.9912,216.3205 C1095.3632,211.6428 1099.1182,213.19 1101.6676,218.3071 C1105.6602,214.5319 1108.8285,215.0265 1111.5131,219.8115 C1121.51,217.7739 1125.2732,225.4193 1121.5404,233.465 C1126.079,241.7688 1121.3848,247.8954 1112.6272,248.1029 C1110.8054,255.6715 1106.7168,256.8469 1100.643,252.3136 C1099.1177,258.8896 1095.0389,261.0021 1089.5464,256.1738 C1084.1891,259.3718 1080.0392,257.3624 1080.1267,250.8772 C1075.1827,255.0809 1070.3302,254.1044 1067.9775,247.8632 C1058.6085,245.2117 1059.1561,239.9046 1063.7697,233.2319 C1058.6687,227.5668 1060.998,223.1043 1067.3202,220.6671 " fill="#F1F1F1" style="stroke:#181818;stroke-width:0.4395780051150895;"/><text fill="#000000" font-family="Segoe UI" font-size="11.429" lengthAdjust="spacing" textLength="31.6496" x="1073.4495" y="237.7187">OAuth</text></g><!--entity STORE--><g id="elem_STORE"><path d="M1035.2256,291.7583 C1039.0445,286.5004 1043.5965,285.89 1047.5941,291.556 C1050.0411,287.0045 1053.0277,285.3044 1057.2927,289.5522 C1060.1931,285.0144 1064.1749,283.8931 1067.8923,288.6172 C1071.1576,282.6735 1076.6768,283.3687 1079.6606,288.9058 C1082.3532,283.355 1085.9019,283.2848 1089.9557,287.4659 C1093.9183,282.5808 1098.7688,282.3755 1101.9951,288.287 C1105.5718,283.3404 1108.9008,284.3267 1112.2035,288.5907 C1115.8483,284.0722 1120.7188,284.9604 1123.2572,289.8857 C1127.0162,284.5071 1131.5938,286.7433 1133.8278,291.4794 C1137.103,286.6082 1140.8843,286.4789 1144.1698,291.4685 C1153.51,291.8987 1157.0903,297.1637 1151.736,305.5112 C1156.5346,312.9268 1152.3189,318.3106 1144.6602,319.3625 C1142.5187,324.0498 1138.6663,325.9594 1134.6444,321.3991 C1132.3945,327.3353 1127.5674,328.2824 1123.8283,322.8111 C1120.7011,329.977 1116.2756,330.0655 1111.3076,324.6417 C1108.9734,330.6089 1105.2785,331.3974 1101.0434,326.4252 C1098.9989,331.4237 1094.6151,332.5373 1090.9313,328.201 C1087.2387,333.5546 1081.5039,333.2628 1078.7039,327.2415 C1074.0505,331.1423 1070.2868,328.8952 1068.7031,323.821 C1064.6117,328.491 1061.0134,329.3692 1057.1296,323.591 C1052.7687,328.478 1048.874,327.1573 1046.9343,321.2947 C1041.8914,325.5211 1038.3108,325.0128 1035.2492,319.0275 C1027.6622,317.4057 1024.4135,311.9786 1029.4119,305.0869 C1025.3479,299.2874 1027.175,292.2737 1035.2256,291.7583 " fill="#F1F1F1" style="stroke:#181818;stroke-width:0.4395780051150895;"/><text fill="#000000" font-family="Segoe UI" font-size="11.429" lengthAdjust="spacing" textLength="96.7072" x="1040.9207" y="309.8095">Storage/Relat&#243;rios</text></g><!--entity HOLIDAYS--><g id="elem_HOLIDAYS"><path d="M1054.1882,14.3241 C1056.262,7.8569 1061.8243,6.4375 1065.9793,12.3404 C1069.4966,6.5331 1075.0706,6.2698 1078.8516,12.0475 C1081.8682,5.5775 1085.392,6.3628 1089.9156,10.4714 C1093.9151,5.2749 1100.3779,5.5693 1102.8095,12.1832 C1106.007,6.8623 1110.6651,7.5463 1113.1606,12.8661 C1117.339,7.4374 1123.8568,7.3325 1126.0288,14.8589 C1132.4693,17.3129 1134.537,23.3273 1129.3061,28.5708 C1133.9661,34.3667 1133.977,39.652 1125.6686,41.9121 C1122.995,47.9577 1118.7037,48.7609 1114.5784,43.3128 C1111.6817,49.9894 1108.0333,49.8404 1102.9733,45.6156 C1100.475,52.7615 1095.7942,52.1441 1091.1643,47.808 C1085.7976,53.9162 1081.6478,52.7108 1077.6547,46.3231 C1073.0635,50.3702 1068.0685,49.8438 1065.8949,43.5688 C1061.3347,49.0994 1056.9948,48.0114 1054.5532,41.563 C1046.8961,37.7689 1046.5762,33.4449 1052.6636,27.7682 C1047.4035,22.7391 1046.729,17.9109 1054.1882,14.3241 " fill="#F1F1F1" style="stroke:#181818;stroke-width:0.4395780051150895;"/><text fill="#000000" font-family="Segoe UI" font-size="11.429" lengthAdjust="spacing" textLength="58.9035" x="1059.8226" y="31.9962">Nager.Date</text></g><g id="elem_GMN29"><path d="M947.7302,78.5666 L947.7302,117.7612 A0,0 0 0 0 947.7302,117.7612 L1230.8184,117.7612 A0,0 0 0 0 1230.8184,117.7612 L1230.8184,87.3582 L1222.0269,78.5666 L1092.7909,78.5666 L1089.2743,48.1126 L1085.7577,78.5666 L947.7302,78.5666 A0,0 0 0 0 947.7302,78.5666 " fill="#FEFFDD" style="stroke:#181818;stroke-width:0.4395780051150895;"/><path d="M1222.0269,78.5666 L1222.0269,87.3582 L1230.8184,87.3582 L1222.0269,78.5666 " fill="#FEFFDD" style="stroke:#181818;stroke-width:0.4395780051150895;"/><text fill="#000000" font-family="Segoe UI" font-size="11.429" lengthAdjust="spacing" textLength="264.626" x="953.0051" y="95.2955">Resumo arquitetural executivo: fluxo ponta a ponta,</text><text fill="#000000" font-family="Segoe UI" font-size="11.429" lengthAdjust="spacing" textLength="218.9098" x="953.0051" y="110.497">com seguran&#231;a, compliance e persist&#234;ncia.</text></g><!--link USER to FE_UI--><g id="link_USER_FE_UI"><path d="M54.7275,199.4506 C69.6819,199.4506 83.9682,199.4506 101.8766,199.4506 " fill="none" id="USER-to-FE_UI" style="stroke:#1F3A68;stroke-width:0.879156010230179;"/><polygon fill="#1F3A68" points="107.1515,199.4506,99.2391,195.9339,102.7558,199.4506,99.2391,202.9672,107.1515,199.4506" style="stroke:#1F3A68;stroke-width:0.879156010230179;"/></g><!--link FE_UI to FE_AUTHZ--><g id="link_FE_UI_FE_AUTHZ"><path d="M203.9906,204.576 C234.4885,204.576 268.1426,204.576 268.1426,204.576 C268.1426,204.576 268.1426,204.0222 268.1426,209.4817 " fill="none" id="FE_UI-to-FE_AUTHZ" style="stroke:#1F3A68;stroke-width:0.879156010230179;"/><polygon fill="#1F3A68" points="268.1426,214.7567,271.6592,206.8443,268.1426,210.3609,264.626,206.8443,268.1426,214.7567" style="stroke:#1F3A68;stroke-width:0.879156010230179;"/></g><!--link FE_UI to FE_API--><g id="link_FE_UI_FE_API"><path d="M204.0433,194.3251 C252.5464,194.3251 320.0128,194.3251 320.0128,194.3251 C320.0128,194.3251 320.0128,194.8789 320.0128,189.4194 " fill="none" id="FE_UI-to-FE_API" style="stroke:#1F3A68;stroke-width:0.879156010230179;"/><polygon fill="#1F3A68" points="320.0128,184.1444,316.4962,192.0568,320.0128,188.5402,323.5294,192.0568,320.0128,184.1444" style="stroke:#1F3A68;stroke-width:0.879156010230179;"/></g><!--link FE_API to BE_SEC_AUTH--><g id="link_FE_API_BE_SEC_AUTH"><path d="M360.8672,167.8009 C383.3384,167.8009 406.2404,167.8009 430.5842,167.8009 " fill="none" id="FE_API-to-BE_SEC_AUTH" style="stroke:#1F3A68;stroke-width:0.879156010230179;"/><polygon fill="#1F3A68" points="435.8592,167.8009,427.9468,164.2843,431.4634,167.8009,427.9468,171.3176,435.8592,167.8009" style="stroke:#1F3A68;stroke-width:0.879156010230179;"/></g><!--link BE_SEC_AUTH to BE_SCOPE--><g id="link_BE_SEC_AUTH_BE_SCOPE"><path d="M545.1734,167.8009 C561.9741,167.8009 575.2933,167.8009 592.4457,167.8009 " fill="none" id="BE_SEC_AUTH-to-BE_SCOPE" style="stroke:#1F3A68;stroke-width:0.879156010230179;"/><polygon fill="#1F3A68" points="597.7206,167.8009,589.8082,164.2843,593.3248,167.8009,589.8082,171.3176,597.7206,167.8009" style="stroke:#1F3A68;stroke-width:0.879156010230179;"/></g><!--link BE_SCOPE to BE_DOMAIN--><g id="link_BE_SCOPE_BE_DOMAIN"><path d="M718.6397,166.9218 C751.696,166.9218 785.9655,166.9218 785.9655,166.9218 C785.9655,166.9218 785.9655,169.5241 785.9655,177.5332 " fill="none" id="BE_SCOPE-to-BE_DOMAIN" style="stroke:#1F3A68;stroke-width:0.879156010230179;"/><polygon fill="#1F3A68" points="785.9655,182.8081,789.4821,174.8957,785.9655,178.4123,782.4488,174.8957,785.9655,182.8081" style="stroke:#1F3A68;stroke-width:0.879156010230179;"/></g><!--link BE_SCOPE to BE_AUD--><g id="link_BE_SCOPE_BE_AUD"><path d="M718.4111,159.6687 C769.1384,159.6687 833.4399,159.6687 833.4399,159.6687 C833.4399,159.6687 833.4399,161.7699 833.4399,157.761 " fill="none" id="BE_SCOPE-to-BE_AUD" style="stroke:#1F3A68;stroke-width:0.879156010230179;"/><polygon fill="#1F3A68" points="833.4399,152.486,829.9233,160.3984,833.4399,156.8818,836.9565,160.3984,833.4399,152.486" style="stroke:#1F3A68;stroke-width:0.879156010230179;"/></g><!--link BE_DOMAIN to ORM--><g id="link_BE_DOMAIN_ORM"><path d="M885.3101,183.0191 C885.3101,178.1838 885.3101,174.1748 885.3101,174.1748 C885.3101,174.1748 1002.6686,174.1748 1057.7566,174.1748 " fill="none" id="BE_DOMAIN-to-ORM" style="stroke:#1F3A68;stroke-width:0.879156010230179;"/><polygon fill="#1F3A68" points="1063.0315,174.1748,1055.1191,170.6582,1058.6357,174.1748,1055.1191,177.6914,1063.0315,174.1748" style="stroke:#1F3A68;stroke-width:0.879156010230179;"/></g><!--link ORM to DB--><g id="link_ORM_DB"><path d="M1115.3237,165.1635 C1156.1693,165.1635 1230.2645,165.1635 1277.95,165.1635 " fill="none" id="ORM-to-DB" style="stroke:#1F3A68;stroke-width:0.879156010230179;"/><polygon fill="#1F3A68" points="1283.2249,165.1635,1275.3125,161.6468,1278.8291,165.1635,1275.3125,168.6801,1283.2249,165.1635" style="stroke:#1F3A68;stroke-width:0.879156010230179;"/></g><!--link BE_DOMAIN to OAUTH--><g id="link_BE_DOMAIN_OAUTH"><path d="M895.0336,194.3251 C970.8784,194.3251 1089.2743,194.3251 1089.2743,194.3251 C1089.2743,194.3251 1089.2743,197.6571 1089.2743,206.7388 " fill="none" id="BE_DOMAIN-to-OAUTH" style="stroke:#1F3A68;stroke-width:0.879156010230179;"/><polygon fill="#1F3A68" points="1089.2743,212.0137,1092.7909,204.1013,1089.2743,207.6179,1085.7577,204.1013,1089.2743,212.0137" style="stroke:#1F3A68;stroke-width:0.879156010230179;"/></g><!--link BE_DOMAIN to HOLIDAYS--><g id="link_BE_DOMAIN_HOLIDAYS"><path d="M875.6394,182.9312 C875.6394,139.7998 875.6394,27.136 875.6394,27.136 C875.6394,27.136 978.9402,27.136 1041.2812,27.136 " fill="none" id="BE_DOMAIN-to-HOLIDAYS" style="stroke:#1F3A68;stroke-width:0.879156010230179;"/><polygon fill="#1F3A68" points="1046.5561,27.136,1038.6437,23.6193,1042.1603,27.136,1038.6437,30.6526,1046.5561,27.136" style="stroke:#1F3A68;stroke-width:0.879156010230179;"/></g><!--link BE_DOMAIN to STORE--><g id="link_BE_DOMAIN_STORE"><path d="M895.0072,203.2573 C957.4009,203.2573 1044.4373,203.2573 1044.4373,203.2573 C1044.4373,203.2573 1044.4373,249.0965 1044.4373,278.8471 " fill="none" id="BE_DOMAIN-to-STORE" style="stroke:#1F3A68;stroke-width:0.879156010230179;"/><polygon fill="#1F3A68" points="1044.4373,284.1221,1047.954,276.2097,1044.4373,279.7263,1040.9207,276.2097,1044.4373,284.1221" style="stroke:#1F3A68;stroke-width:0.879156010230179;"/></g><!--SRC=[TLJDJjj04BxlKup2iK09I1NgePA9RH49aZGcbTeBMko9isAzu-wk2L3rQNf0gjGJwXFunRfsOcC7UaXsTxvl_hwPHEBIWYNG8brPI8J6s0fIpCHS8cJy7eR7HqUm5ebTCNChLCurpy2iU49heL9OSccmWzpm-3RLLAXaH98qh5V2Tl6OifmKAXlP1vUXoiTLAhkKt8NWAVwV88L2-v0ZaBOhwW19Bc0uFEfQSCaBQKDITi8pX0XJGbYCtwP4uX5XUD81FQrflUbaRnYUU1zEE-2ygUsCT89wI_F2qR7llqdRqMOlF0szi4iTDUhq8hvA_4BRZHW4uKdeCSPZwvw3XHLIFBfPwG5m0uiec3FMIWg3KBkkKIKr6WRmWy7BX9px678NngUi_AC4RLdNJhuUBK9Zoby4xs26EXFkyHTDG_OML-VV-loH5Ev4c0VHLKkRZTdFNcrLRwuqS4XDEdjLdXjceRagdxXBxHLsjULTHy6epjkdV-5I9BnysfGQc9XoQZr6qrcm6rtVYVA9ZDiGc61QFiUYvVlJIsyywJjuHIASwe8t96_XLpqbtF8RRbnBCp8srHXzlgWf_XdhkC-qCDd6Tpg_PB6a8e71jErhMdUqDKSkaVkDl9-ZvBPyre8sWaTNqtdGa2QEeGzzRh76pgSNOz_x6Z5MxG4S77pQ3hF-RjwRUVLDivhZZjhI5RXpRx5QokRIMBU2xPehYLgqDbQzkqzzTmBjW4tIZgrjgs_UAC4KkKMx8MifOtCqHKR0zVV2_IbPjpiIy1xZmeex-WXBMToJMtXbEV3DkLyD24oxP_lrlANWAaP0o54ROMpvMyM27x9gMwjy_m00]--></g></svg>