<?xml version="1.0" encoding="us-ascii" standalone="no"?><svg xmlns="http://www.w3.org/2000/svg" xmlns:xlink="http://www.w3.org/1999/xlink" contentStyleType="text/css" height="1957.0833px" preserveAspectRatio="none" style="width:1003px;height:1957px;background:#FFFFFF;" version="1.1" viewBox="0 0 1003 1957" width="1003.75px" zoomAndPan="magnify"><defs/><g><!--cluster HUB--><g id="cluster_HUB"><rect fill="#F8FAFD" height="1765.7292" rx="2.8646" ry="2.8646" style="stroke:#B7C6DD;stroke-width:1.1458333333333333;" width="806.6667" x="190.2083" y="8.0208"/><text fill="#000000" font-family="Segoe UI" font-size="14.8958" font-weight="bold" lengthAdjust="spacing" textLength="355.2083" x="415.9375" y="26.3866">SMARTER HUB - Casos de Uso (Resumo Executivo)</text></g><!--cluster Identidade e Governan?a de Acesso--><g id="cluster_Identidade e Governan&#231;a de Acesso"><rect fill="#F8FAFD" height="370.1042" rx="2.8646" ry="2.8646" style="stroke:#B7C6DD;stroke-width:1.1458333333333333;" width="650.8333" x="254.375" y="1376.1458"/><text fill="#000000" font-family="Segoe UI" font-size="14.8958" font-weight="bold" lengthAdjust="spacing" textLength="249.7917" x="454.8958" y="1394.5116">Identidade e Governan&#231;a de Acesso</text></g><!--cluster Ciclo de Vida do Colaborador--><g id="cluster_Ciclo de Vida do Colaborador"><rect fill="#F8FAFD" height="397.6042" rx="2.8646" ry="2.8646" style="stroke:#B7C6DD;stroke-width:1.1458333333333333;" width="726.4583" x="242.9167" y="58.4375"/><text fill="#000000" font-family="Segoe UI" font-size="14.8958" font-weight="bold" lengthAdjust="spacing" textLength="207.3958" x="502.4479" y="76.8033">Ciclo de Vida do Colaborador</text></g><!--cluster Tempo, Compliance e Opera??o--><g id="cluster_Tempo, Compliance e Opera&#231;&#227;o"><rect fill="#F8FAFD" height="519.0625" rx="2.8646" ry="2.8646" style="stroke:#B7C6DD;stroke-width:1.1458333333333333;" width="732.7604" x="217.7083" y="829.5833"/><text fill="#000000" font-family="Segoe UI" font-size="14.8958" font-weight="bold" lengthAdjust="spacing" textLength="224.5833" x="471.7969" y="847.9491">Tempo, Compliance e Opera&#231;&#227;o</text></g><!--cluster Brasil, Desenvolvimento e Bem-estar--><g id="cluster_Brasil, Desenvolvimento e Bem-estar"><rect fill="#F8FAFD" height="318.5417" rx="2.8646" ry="2.8646" style="stroke:#B7C6DD;stroke-width:1.1458333333333333;" width="724.7396" x="228.5937" y="483.5417"/><text fill="#000000" font-family="Segoe UI" font-size="14.8958" font-weight="bold" lengthAdjust="spacing" textLength="260.1042" x="460.9115" y="501.9075">Brasil, Desenvolvimento e Bem-estar</text></g><g id="elem_UC_LOGIN"><ellipse cx="399.3299" cy="1613.5639" fill="#EEF3FA" rx="76.2049" ry="17.991" style="stroke:#1F3A68;stroke-width:0.5729166666666666;"/><text fill="#0F2342" font-family="Segoe UI" font-size="14.8958" lengthAdjust="spacing" textLength="89.375" x="351.2049" y="1618.4499">Iniciar sess&#227;o</text></g><g id="elem_UC_OAUTH"><ellipse cx="399.5686" cy="1439.2158" fill="#EEF3FA" rx="95.3499" ry="21.82" style="stroke:#1F3A68;stroke-width:0.5729166666666666;"/><text fill="#0F2342" font-family="Segoe UI" font-size="14.8958" lengthAdjust="spacing" textLength="140.9375" x="327.1967" y="1443.6863">Autenticar por OAuth</text></g><g id="elem_UC_SCOPE"><ellipse cx="399.3865" cy="1528.5544" fill="#EEF3FA" rx="120.949" ry="26.9398" style="stroke:#1F3A68;stroke-width:0.5729166666666666;"/><text fill="#0F2342" font-family="Segoe UI" font-size="14.8958" lengthAdjust="spacing" textLength="199.375" x="299.699" y="1532.4305">Consultar permiss&#245;es efetivas</text></g><g id="elem_UC_PERM"><ellipse cx="399.4008" cy="1699.2864" fill="#EEF3FA" rx="126.6925" ry="28.0885" style="stroke:#1F3A68;stroke-width:0.5729166666666666;"/><text fill="#0F2342" font-family="Segoe UI" font-size="14.8958" lengthAdjust="spacing" textLength="211.9792" x="293.4112" y="1703.1626">Gerir permiss&#245;es e acesso total</text></g><g id="elem_UC_AUDIT"><ellipse cx="791.3416" cy="1699.4141" fill="#EEF3FA" rx="95.8207" ry="21.9141" style="stroke:#1F3A68;stroke-width:0.5729166666666666;"/><text fill="#0F2342" font-family="Segoe UI" font-size="14.8958" lengthAdjust="spacing" textLength="142.0833" x="718.5796" y="1703.8315">Auditar a&#231;&#245;es cr&#237;ticas</text></g><g id="elem_UC_PROFILE"><ellipse cx="399.6007" cy="216.8472" fill="#EEF3FA" rx="130.9027" ry="28.9305" style="stroke:#1F3A68;stroke-width:0.5729166666666666;"/><text fill="#0F2342" font-family="Segoe UI" font-size="14.8958" lengthAdjust="spacing" textLength="221.1458" x="289.0277" y="220.7234">Gerir perfil e altera&#231;&#245;es sens&#237;veis</text></g><g id="elem_UC_NOTIF"><ellipse cx="791.4757" cy="195.0764" fill="#EEF3FA" rx="130.9027" ry="28.9305" style="stroke:#1F3A68;stroke-width:0.5729166666666666;"/><text fill="#0F2342" font-family="Segoe UI" font-size="14.8958" lengthAdjust="spacing" textLength="221.1458" x="680.9027" y="198.9525">Notificar e acompanhar decis&#245;es</text></g><g id="elem_UC_ADM_INV"><ellipse cx="399.1011" cy="412.6848" fill="#EEF3FA" rx="113.2157" ry="25.3931" style="stroke:#1F3A68;stroke-width:0.5729166666666666;"/><text fill="#0F2342" font-family="Segoe UI" font-size="14.8958" lengthAdjust="spacing" textLength="182.1875" x="308.0074" y="416.5609">Enviar convite de admiss&#227;o</text></g><g id="elem_UC_ADM_SUB"><ellipse cx="399.2449" cy="123.9636" fill="#EEF3FA" rx="107.6304" ry="24.2761" style="stroke:#1F3A68;stroke-width:0.5729166666666666;"/><text fill="#0F2342" font-family="Segoe UI" font-size="14.8958" lengthAdjust="spacing" textLength="169.5833" x="314.4533" y="127.8397">Submeter ficha por token</text></g><g id="elem_UC_ADM_DONE"><ellipse cx="399.0465" cy="316.1947" fill="#EEF3FA" rx="137.7965" ry="30.3093" style="stroke:#1F3A68;stroke-width:0.5729166666666666;"/><text fill="#0F2342" font-family="Segoe UI" font-size="14.8958" lengthAdjust="spacing" textLength="236.0417" x="281.0257" y="320.0709">Concluir admiss&#227;o e criar utilizador</text></g><g id="elem_UC_USERS_TEAMS"><ellipse cx="791.2257" cy="338.9431" fill="#EEF3FA" rx="159.8715" ry="34.7243" style="stroke:#1F3A68;stroke-width:0.5729166666666666;"/><text fill="#0F2342" font-family="Segoe UI" font-size="14.8958" lengthAdjust="spacing" textLength="283.0208" x="649.7153" y="342.8192">Gerir utilizadores, equipas e memberships</text></g><g id="elem_UC_VAC_REQ"><ellipse cx="399.4822" cy="991.2923" fill="#EEF3FA" rx="110.1593" ry="24.7819" style="stroke:#1F3A68;stroke-width:0.5729166666666666;"/><text fill="#0F2342" font-family="Segoe UI" font-size="14.8958" lengthAdjust="spacing" textLength="175.3125" x="311.8259" y="995.1684">Submeter f&#233;rias/aus&#234;ncias</text></g><g id="elem_UC_VAC_DECIDE"><ellipse cx="399.4999" cy="1086.5146" fill="#EEF3FA" rx="139.3957" ry="30.6291" style="stroke:#1F3A68;stroke-width:0.5729166666666666;"/><text fill="#0F2342" font-family="Segoe UI" font-size="14.8958" lengthAdjust="spacing" textLength="239.4792" x="279.7603" y="1090.3907">Aprovar/Rejeitar cadeia de pedidos</text></g><g id="elem_UC_VAC_RULES"><ellipse cx="791.2582" cy="1192.8245" fill="#EEF3FA" rx="140.9977" ry="30.9495" style="stroke:#1F3A68;stroke-width:0.5729166666666666;"/><text fill="#0F2342" font-family="Segoe UI" font-size="14.8958" lengthAdjust="spacing" textLength="242.9167" x="669.7998" y="1196.7007">Aplicar pol&#237;ticas PT/BR e capacidade</text></g><g id="elem_UC_VAC_VERSION"><ellipse cx="399.1775" cy="1192.6688" fill="#EEF3FA" rx="163.1359" ry="35.3772" style="stroke:#1F3A68;stroke-width:0.5729166666666666;"/><text fill="#0F2342" font-family="Segoe UI" font-size="14.8958" lengthAdjust="spacing" textLength="289.8958" x="254.2296" y="1196.545">Versionar pedidos e reajustar por aus&#234;ncia</text></g><g id="elem_UC_CAL"><ellipse cx="399.1256" cy="898.2939" fill="#EEF3FA" rx="123.5527" ry="27.4605" style="stroke:#1F3A68;stroke-width:0.5729166666666666;"/><text fill="#0F2342" font-family="Segoe UI" font-size="14.8958" lengthAdjust="spacing" textLength="205.1042" x="296.5735" y="902.17">Ver calend&#225;rio pessoal/equipa</text></g><g id="elem_UC_EXPORT"><ellipse cx="399.087" cy="1299.2132" fill="#EEF3FA" rx="137.2641" ry="30.2028" style="stroke:#1F3A68;stroke-width:0.5729166666666666;"/><text fill="#0F2342" font-family="Segoe UI" font-size="14.8958" lengthAdjust="spacing" textLength="234.8958" x="281.6391" y="1303.0894">Exportar mapa anual e indicadores</text></g><g id="elem_UC_HB"><ellipse cx="399.2256" cy="758.5222" fill="#EEF3FA" rx="112.1943" ry="25.1889" style="stroke:#1F3A68;stroke-width:0.5729166666666666;"/><text fill="#0F2342" font-family="Segoe UI" font-size="14.8958" lengthAdjust="spacing" textLength="179.8958" x="309.2777" y="762.3983">Operar banco de horas BR</text></g><g id="elem_UC_HB_POLICY"><ellipse cx="791.0698" cy="751.641" fill="#EEF3FA" rx="143.674" ry="31.4848" style="stroke:#1F3A68;stroke-width:0.5729166666666666;"/><text fill="#0F2342" font-family="Segoe UI" font-size="14.8958" lengthAdjust="spacing" textLength="248.6458" x="666.7469" y="755.5172">Controlar excedente e fecho semanal</text></g><g id="elem_UC_TRN_CAR"><ellipse cx="399.087" cy="555.5674" fill="#EEF3FA" rx="137.2641" ry="30.2028" style="stroke:#1F3A68;stroke-width:0.5729166666666666;"/><text fill="#0F2342" font-family="Segoe UI" font-size="14.8958" lengthAdjust="spacing" textLength="234.8958" x="281.6391" y="559.4435">Gerir forma&#231;&#227;o e plano de carreira</text></g><g id="elem_UC_WELL"><ellipse cx="399.2121" cy="659.9778" fill="#EEF3FA" rx="152.285" ry="33.207" style="stroke:#1F3A68;stroke-width:0.5729166666666666;"/><text fill="#0F2342" font-family="Segoe UI" font-size="14.8958" lengthAdjust="spacing" textLength="266.9792" x="265.7225" y="663.854">Reportar wellbeing e alerta ocupacional</text></g><!--entity COL--><g id="elem_COL"><ellipse cx="87.0833" cy="872.5521" fill="#F1F1F1" rx="18.3333" ry="18.3333" style="stroke:#181818;stroke-width:0.5729166666666666;"/><path d="M87.0833,895.4687 C91.6667,895.4687 95.1042,895.4687 99.6875,890.8854 C108.8542,890.8854 118.0208,900.0521 118.0208,909.2187 L118.0208,913.8021 C118.0208,918.3854 113.4375,922.9687 108.8542,922.9687 L65.3125,922.9687 C60.7292,922.9687 56.1458,918.3854 56.1458,913.8021 L56.1458,909.2187 C56.1458,900.0521 65.3125,890.8854 74.4792,890.8854 C79.0625,895.4687 82.5,895.4687 87.0833,895.4687 " fill="#F1F1F1" style="stroke:#181818;stroke-width:0.5729166666666666;"/><text fill="#000000" font-family="Segoe UI" font-size="14.8958" lengthAdjust="spacing" textLength="100.8333" x="36.6667" y="939.6158">Colaboradores</text></g><!--entity CHEFE--><g id="elem_CHEFE"><ellipse cx="87.0833" cy="636.5104" fill="#F1F1F1" rx="18.3333" ry="18.3333" style="stroke:#181818;stroke-width:0.5729166666666666;"/><path d="M87.0833,659.4271 C91.6667,659.4271 95.1042,659.4271 99.6875,654.8438 C108.8542,654.8438 118.0208,664.0104 118.0208,673.1771 L118.0208,677.7604 C118.0208,682.3438 113.4375,686.9271 108.8542,686.9271 L65.3125,686.9271 C60.7292,686.9271 56.1458,682.3438 56.1458,677.7604 L56.1458,673.1771 C56.1458,664.0104 65.3125,654.8438 74.4792,654.8438 C79.0625,659.4271 82.5,659.4271 87.0833,659.4271 " fill="#F1F1F1" style="stroke:#181818;stroke-width:0.5729166666666666;"/><text fill="#000000" font-family="Segoe UI" font-size="14.8958" lengthAdjust="spacing" textLength="110" x="32.0833" y="703.5741">Chefe de Equipa</text></g><!--entity RHAT--><g id="elem_RHAT"><ellipse cx="87.0833" cy="1220.8854" fill="#F1F1F1" rx="18.3333" ry="18.3333" style="stroke:#181818;stroke-width:0.5729166666666666;"/><path d="M87.0833,1243.8021 C91.6667,1243.8021 95.1042,1243.8021 99.6875,1239.2188 C108.8542,1239.2188 118.0208,1248.3854 118.0208,1257.5521 L118.0208,1262.1354 C118.0208,1266.7188 113.4375,1271.3021 108.8542,1271.3021 L65.3125,1271.3021 C60.7292,1271.3021 56.1458,1266.7188 56.1458,1262.1354 L56.1458,1257.5521 C56.1458,1248.3854 65.3125,1239.2188 74.4792,1239.2188 C79.0625,1243.8021 82.5,1243.8021 87.0833,1243.8021 " fill="#F1F1F1" style="stroke:#181818;stroke-width:0.5729166666666666;"/><text fill="#000000" font-family="Segoe UI" font-size="14.8958" lengthAdjust="spacing" textLength="118.0208" x="28.0729" y="1287.9491">RH (Acesso Total)</text></g><!--entity ADMIN--><g id="elem_ADMIN"><ellipse cx="87.0833" cy="1880.8854" fill="#F1F1F1" rx="18.3333" ry="18.3333" style="stroke:#181818;stroke-width:0.5729166666666666;"/><path d="M87.0833,1903.8021 C91.6667,1903.8021 95.1042,1903.8021 99.6875,1899.2187 C108.8542,1899.2187 118.0208,1908.3854 118.0208,1917.5521 L118.0208,1922.1354 C118.0208,1926.7187 113.4375,1931.3021 108.8542,1931.3021 L65.3125,1931.3021 C60.7292,1931.3021 56.1458,1926.7187 56.1458,1922.1354 L56.1458,1917.5521 C56.1458,1908.3854 65.3125,1899.2187 74.4792,1899.2187 C79.0625,1903.8021 82.5,1903.8021 87.0833,1903.8021 " fill="#F1F1F1" style="stroke:#181818;stroke-width:0.5729166666666666;"/><text fill="#000000" font-family="Segoe UI" font-size="14.8958" lengthAdjust="spacing" textLength="42.3958" x="65.8854" y="1947.9491">Admin</text></g><!--entity CAND--><g id="elem_CAND"><ellipse cx="87.0833" cy="97.9688" fill="#F1F1F1" rx="18.3333" ry="18.3333" style="stroke:#181818;stroke-width:0.5729166666666666;"/><path d="M87.0833,120.8854 C91.6667,120.8854 95.1042,120.8854 99.6875,116.3021 C108.8542,116.3021 118.0208,125.4687 118.0208,134.6354 L118.0208,139.2188 C118.0208,143.8021 113.4375,148.3854 108.8542,148.3854 L65.3125,148.3854 C60.7292,148.3854 56.1458,143.8021 56.1458,139.2188 L56.1458,134.6354 C56.1458,125.4687 65.3125,116.3021 74.4792,116.3021 C79.0625,120.8854 82.5,120.8854 87.0833,120.8854 " fill="#F1F1F1" style="stroke:#181818;stroke-width:0.5729166666666666;"/><text fill="#000000" font-family="Segoe UI" font-size="14.8958" lengthAdjust="spacing" textLength="160.4167" x="6.875" y="165.0325">Candidato de Admiss&#227;o</text></g><!--link COL to UC_LOGIN--><g id="link_COL_UC_LOGIN"><path d="M137.6146,938.724 C144.3292,938.724 148.9583,938.724 148.9583,938.724 C148.9583,938.724 148.9583,1613.3333 148.9583,1613.3333 C148.9583,1613.3333 242.3437,1613.3333 315.975,1613.3333 " fill="none" id="COL-to-UC_LOGIN" style="stroke:#1F3A68;stroke-width:1.1458333333333333;"/><polygon fill="#1F3A68" points="322.85,1613.3333,312.5375,1608.75,317.1208,1613.3333,312.5375,1617.9167,322.85,1613.3333" style="stroke:#1F3A68;stroke-width:1.1458333333333333;"/></g><!--link COL to UC_OAUTH--><g id="link_COL_UC_OAUTH"><path d="M137.5802,930.1302 C149.1531,930.1302 158.125,930.1302 158.125,930.1302 C158.125,930.1302 158.125,1439.1667 158.125,1439.1667 C158.125,1439.1667 229.7052,1439.1667 297.1146,1439.1667 " fill="none" id="COL-to-UC_OAUTH" style="stroke:#1F3A68;stroke-width:1.1458333333333333;"/><polygon fill="#1F3A68" points="303.9896,1439.1667,293.6771,1434.5833,298.2604,1439.1667,293.6771,1443.75,303.9896,1439.1667" style="stroke:#1F3A68;stroke-width:1.1458333333333333;"/></g><!--link COL to UC_SCOPE--><g id="link_COL_UC_SCOPE"><path d="M137.775,934.4271 C148.076,934.4271 155.8333,934.4271 155.8333,934.4271 C155.8333,934.4271 155.8333,1528.5417 155.8333,1528.5417 C155.8333,1528.5417 210.3062,1528.5417 271.4135,1528.5417 " fill="none" id="COL-to-UC_SCOPE" style="stroke:#1F3A68;stroke-width:1.1458333333333333;"/><polygon fill="#1F3A68" points="278.2885,1528.5417,267.976,1523.9583,272.5594,1528.5417,267.976,1533.125,278.2885,1528.5417" style="stroke:#1F3A68;stroke-width:1.1458333333333333;"/></g><!--link COL to UC_PROFILE--><g id="link_COL_UC_PROFILE"><path d="M137.6375,857.0833 C145.5896,857.0833 151.25,857.0833 151.25,857.0833 C151.25,857.0833 151.25,216.5625 151.25,216.5625 C151.25,216.5625 201.8729,216.5625 261.5135,216.5625 " fill="none" id="COL-to-UC_PROFILE" style="stroke:#1F3A68;stroke-width:1.1458333333333333;"/><polygon fill="#1F3A68" points="268.3885,216.5625,258.076,211.9792,262.6594,216.5625,258.076,221.1458,268.3885,216.5625" style="stroke:#1F3A68;stroke-width:1.1458333333333333;"/></g><!--link COL to UC_NOTIF--><g id="link_COL_UC_NOTIF"><path d="M137.6146,867.3958 C264.3323,867.3958 585.5208,867.3958 585.5208,867.3958 C585.5208,867.3958 585.5208,211.601 585.5208,211.601 C585.5208,211.601 628.0771,211.601 678.4708,211.601 " fill="none" id="COL-to-UC_NOTIF" style="stroke:#1F3A68;stroke-width:1.1458333333333333;"/><polygon fill="#1F3A68" points="685.3458,211.601,675.0333,207.0177,679.6167,211.601,675.0333,216.1844,685.3458,211.601" style="stroke:#1F3A68;stroke-width:1.1458333333333333;"/></g><!--link COL to UC_VAC_REQ--><g id="link_COL_UC_VAC_REQ"><path d="M104.2708,943.1125 C104.2708,966.8427 104.2708,991.1458 104.2708,991.1458 C104.2708,991.1458 198.3552,991.1458 282.1615,991.1458 " fill="none" id="COL-to-UC_VAC_REQ" style="stroke:#1F3A68;stroke-width:1.1458333333333333;"/><polygon fill="#1F3A68" points="289.0365,991.1458,278.724,986.5625,283.3073,991.1458,278.724,995.7292,289.0365,991.1458" style="stroke:#1F3A68;stroke-width:1.1458333333333333;"/></g><!--link COL to UC_CAL--><g id="link_COL_UC_CAL"><path d="M137.5917,898.3333 C174.8771,898.3333 220.4125,898.3333 268.549,898.3333 " fill="none" id="COL-to-UC_CAL" style="stroke:#1F3A68;stroke-width:1.1458333333333333;"/><polygon fill="#1F3A68" points="275.424,898.3333,265.1115,893.75,269.6948,898.3333,265.1115,902.9167,275.424,898.3333" style="stroke:#1F3A68;stroke-width:1.1458333333333333;"/></g><!--link COL to UC_TRN_CAR--><g id="link_COL_UC_TRN_CAR"><path d="M137.6146,860.5208 C150.3219,860.5208 160.4167,860.5208 160.4167,860.5208 C160.4167,860.5208 160.4167,565.8469 160.4167,565.8469 C160.4167,565.8469 206.4792,565.8469 262.5104,565.8469 " fill="none" id="COL-to-UC_TRN_CAR" style="stroke:#1F3A68;stroke-width:1.1458333333333333;"/><polygon fill="#1F3A68" points="269.3854,565.8469,259.0729,561.2635,263.6563,565.8469,259.0729,570.4302,269.3854,565.8469" style="stroke:#1F3A68;stroke-width:1.1458333333333333;"/></g><!--link COL to UC_WELL--><g id="link_COL_UC_WELL"><path d="M137.7292,863.9583 C186.9656,863.9583 254.375,863.9583 254.375,863.9583 C254.375,863.9583 254.375,718.8271 254.375,677.2677 " fill="none" id="COL-to-UC_WELL" style="stroke:#1F3A68;stroke-width:1.1458333333333333;"/><polygon fill="#1F3A68" points="254.375,670.3927,249.7917,680.7052,254.375,676.1219,258.9583,680.7052,254.375,670.3927" style="stroke:#1F3A68;stroke-width:1.1458333333333333;"/></g><!--link CHEFE to UC_VAC_DECIDE--><g id="link_CHEFE_UC_VAC_DECIDE"><path d="M142.3813,702.3958 C195.6281,702.3958 268.125,702.3958 268.125,702.3958 C268.125,702.3958 268.125,1008.0698 268.125,1069.1083 " fill="none" id="CHEFE-to-UC_VAC_DECIDE" style="stroke:#1F3A68;stroke-width:1.1458333333333333;"/><polygon fill="#1F3A68" points="268.125,1075.9833,272.7083,1065.6708,268.125,1070.2542,263.5417,1065.6708,268.125,1075.9833" style="stroke:#1F3A68;stroke-width:1.1458333333333333;"/></g><!--link CHEFE to UC_CAL--><g id="link_CHEFE_UC_CAL"><path d="M142.3813,697.8125 C199.9708,697.8125 281.875,697.8125 281.875,697.8125 C281.875,697.8125 281.875,843.0927 281.875,882.326 " fill="none" id="CHEFE-to-UC_CAL" style="stroke:#1F3A68;stroke-width:1.1458333333333333;"/><polygon fill="#1F3A68" points="281.875,889.201,286.4583,878.8885,281.875,883.4719,277.2917,878.8885,281.875,889.201" style="stroke:#1F3A68;stroke-width:1.1458333333333333;"/></g><!--link CHEFE to UC_USERS_TEAMS--><g id="link_CHEFE_UC_USERS_TEAMS"><path d="M142.2208,622.1875 C281.4052,622.1875 635.9375,622.1875 635.9375,622.1875 C635.9375,622.1875 635.9375,401.6031 635.9375,354.5094 " fill="none" id="CHEFE-to-UC_USERS_TEAMS" style="stroke:#1F3A68;stroke-width:1.1458333333333333;"/><polygon fill="#1F3A68" points="635.9375,347.6344,631.3542,357.9469,635.9375,353.3635,640.5208,357.9469,635.9375,347.6344" style="stroke:#1F3A68;stroke-width:1.1458333333333333;"/></g><!--link CHEFE to UC_TRN_CAR--><g id="link_CHEFE_UC_TRN_CAR"><path d="M87.0833,617.5125 C87.0833,584.6042 87.0833,545.6115 87.0833,545.6115 C87.0833,545.6115 176.951,545.6115 262.7396,545.6115 " fill="none" id="CHEFE-to-UC_TRN_CAR" style="stroke:#1F3A68;stroke-width:1.1458333333333333;"/><polygon fill="#1F3A68" points="269.6146,545.6115,259.3021,541.0281,263.8854,545.6115,259.3021,550.1948,269.6146,545.6115" style="stroke:#1F3A68;stroke-width:1.1458333333333333;"/></g><!--link RHAT to UC_VAC_DECIDE--><g id="link_RHAT_UC_VAC_DECIDE"><path d="M71.0417,1201.5552 C71.0417,1154.1063 71.0417,1086.25 71.0417,1086.25 C71.0417,1086.25 163.751,1086.25 253.2292,1086.25 " fill="none" id="RHAT-to-UC_VAC_DECIDE" style="stroke:#1F3A68;stroke-width:1.1458333333333333;"/><polygon fill="#1F3A68" points="260.1042,1086.25,249.7917,1081.6667,254.375,1086.25,249.7917,1090.8333,260.1042,1086.25" style="stroke:#1F3A68;stroke-width:1.1458333333333333;"/></g><!--link RHAT to UC_VAC_RULES--><g id="link_RHAT_UC_VAC_RULES"><path d="M146.5635,1248.6719 C295.7167,1248.6719 673.75,1248.6719 673.75,1248.6719 C673.75,1248.6719 673.75,1233.4552 673.75,1217.0583 " fill="none" id="RHAT-to-UC_VAC_RULES" style="stroke:#1F3A68;stroke-width:1.1458333333333333;"/><polygon fill="#1F3A68" points="673.75,1210.1833,669.1667,1220.4958,673.75,1215.9125,678.3333,1220.4958,673.75,1210.1833" style="stroke:#1F3A68;stroke-width:1.1458333333333333;"/></g><!--link RHAT to UC_VAC_VERSION--><g id="link_RHAT_UC_VAC_VERSION"><path d="M146.1854,1224.5635 C197.0948,1224.5635 263.9542,1224.5635 318.725,1224.5635 " fill="none" id="RHAT-to-UC_VAC_VERSION" style="stroke:#1F3A68;stroke-width:1.1458333333333333;"/><polygon fill="#1F3A68" points="325.6,1224.5635,315.2875,1219.9802,319.8708,1224.5635,315.2875,1229.1469,325.6,1224.5635" style="stroke:#1F3A68;stroke-width:1.1458333333333333;"/></g><!--link RHAT to UC_EXPORT--><g id="link_RHAT_UC_EXPORT"><path d="M146.1854,1280.1823 C187.4583,1280.1823 236.8667,1280.1823 285.874,1280.1823 " fill="none" id="RHAT-to-UC_EXPORT" style="stroke:#1F3A68;stroke-width:1.1458333333333333;"/><polygon fill="#1F3A68" points="292.749,1280.1823,282.4365,1275.599,287.0198,1280.1823,282.4365,1284.7656,292.749,1280.1823" style="stroke:#1F3A68;stroke-width:1.1458333333333333;"/></g><!--link RHAT to UC_ADM_INV--><g id="link_RHAT_UC_ADM_INV"><path d="M146.426,1205.749 C150.8031,1205.749 153.5417,1205.749 153.5417,1205.749 C153.5417,1205.749 153.5417,412.5 153.5417,412.5 C153.5417,412.5 214.5115,412.5 278.9073,412.5 " fill="none" id="RHAT-to-UC_ADM_INV" style="stroke:#1F3A68;stroke-width:1.1458333333333333;"/><polygon fill="#1F3A68" points="285.7823,412.5,275.4698,407.9167,280.0531,412.5,275.4698,417.0833,285.7823,412.5" style="stroke:#1F3A68;stroke-width:1.1458333333333333;"/></g><!--link RHAT to UC_ADM_DONE--><g id="link_RHAT_UC_ADM_DONE"><path d="M146.174,1217.0354 C169.2167,1217.0354 190.2083,1217.0354 190.2083,1217.0354 C190.2083,1217.0354 190.2083,316.25 190.2083,316.25 C190.2083,316.25 215.2448,316.25 254.1344,316.25 " fill="none" id="RHAT-to-UC_ADM_DONE" style="stroke:#1F3A68;stroke-width:1.1458333333333333;"/><polygon fill="#1F3A68" points="261.0094,316.25,250.6969,311.6667,255.2802,316.25,250.6969,320.8333,261.0094,316.25" style="stroke:#1F3A68;stroke-width:1.1458333333333333;"/></g><!--link RHAT to UC_USERS_TEAMS--><g id="link_RHAT_UC_USERS_TEAMS"><path d="M146.1854,1238.5083 C288.6698,1238.5083 639.375,1238.5083 639.375,1238.5083 C639.375,1238.5083 639.375,459.8802 639.375,357.0875 " fill="none" id="RHAT-to-UC_USERS_TEAMS" style="stroke:#1F3A68;stroke-width:1.1458333333333333;"/><polygon fill="#1F3A68" points="639.375,350.2125,634.7917,360.525,639.375,355.9417,643.9583,360.525,639.375,350.2125" style="stroke:#1F3A68;stroke-width:1.1458333333333333;"/></g><!--link RHAT to UC_HB--><g id="link_RHAT_UC_HB"><path d="M146.1396,1213.2771 C157.0021,1213.2771 165,1213.2771 165,1213.2771 C165,1213.2771 165,758.5417 165,758.5417 C165,758.5417 219.9542,758.5417 280.0875,758.5417 " fill="none" id="RHAT-to-UC_HB" style="stroke:#1F3A68;stroke-width:1.1458333333333333;"/><polygon fill="#1F3A68" points="286.9625,758.5417,276.65,753.9583,281.2333,758.5417,276.65,763.125,286.9625,758.5417" style="stroke:#1F3A68;stroke-width:1.1458333333333333;"/></g><!--link RHAT to UC_HB_POLICY--><g id="link_RHAT_UC_HB_POLICY"><path d="M146.4146,1220.8052 C179.1052,1220.8052 213.125,1220.8052 213.125,1220.8052 C213.125,1220.8052 213.125,726.7448 213.125,726.7448 C213.125,726.7448 534.3823,726.7448 696.2083,726.7448 " fill="none" id="RHAT-to-UC_HB_POLICY" style="stroke:#1F3A68;stroke-width:1.1458333333333333;"/><polygon fill="#1F3A68" points="703.0833,726.7448,692.7708,722.1615,697.3542,726.7448,692.7708,731.3281,703.0833,726.7448" style="stroke:#1F3A68;stroke-width:1.1458333333333333;"/></g><!--link RHAT to UC_PERM--><g id="link_RHAT_UC_PERM"><path d="M132.9167,1291.6063 C132.9167,1404.2875 132.9167,1689.9094 132.9167,1689.9094 C132.9167,1689.9094 202.0562,1689.9094 272.8802,1689.9094 " fill="none" id="RHAT-to-UC_PERM" style="stroke:#1F3A68;stroke-width:1.1458333333333333;"/><polygon fill="#1F3A68" points="279.7552,1689.9094,269.4427,1685.326,274.026,1689.9094,269.4427,1694.4927,279.7552,1689.9094" style="stroke:#1F3A68;stroke-width:1.1458333333333333;"/></g><!--link RHAT to UC_WELL--><g id="link_RHAT_UC_WELL"><path d="M146.3,1209.5073 C155.8677,1209.5073 162.7083,1209.5073 162.7083,1209.5073 C162.7083,1209.5073 162.7083,660 162.7083,660 C162.7083,660 194.1385,660 239.926,660 " fill="none" id="RHAT-to-UC_WELL" style="stroke:#1F3A68;stroke-width:1.1458333333333333;"/><polygon fill="#1F3A68" points="246.801,660,236.4885,655.4167,241.0719,660,236.4885,664.5833,246.801,660" style="stroke:#1F3A68;stroke-width:1.1458333333333333;"/></g><!--link RHAT to UC_AUDIT--><g id="link_RHAT_UC_AUDIT"><path d="M146.2542,1258.8354 C315.8833,1258.8354 791.7708,1258.8354 791.7708,1258.8354 C791.7708,1258.8354 791.7708,1581.6854 791.7708,1670.5562 " fill="none" id="RHAT-to-UC_AUDIT" style="stroke:#1F3A68;stroke-width:1.1458333333333333;"/><polygon fill="#1F3A68" points="791.7708,1677.4312,796.3542,1667.1187,791.7708,1671.7021,787.1875,1667.1187,791.7708,1677.4312" style="stroke:#1F3A68;stroke-width:1.1458333333333333;"/></g><!--link ADMIN to UC_PERM--><g id="link_ADMIN_UC_PERM"><path d="M87.0833,1861.7271 C87.0833,1803.301 87.0833,1708.6323 87.0833,1708.6323 C87.0833,1708.6323 184.926,1708.6323 273.0635,1708.6323 " fill="none" id="ADMIN-to-UC_PERM" style="stroke:#1F3A68;stroke-width:1.1458333333333333;"/><polygon fill="#1F3A68" points="279.9385,1708.6323,269.626,1704.049,274.2094,1708.6323,269.626,1713.2156,279.9385,1708.6323" style="stroke:#1F3A68;stroke-width:1.1458333333333333;"/></g><!--link ADMIN to UC_AUDIT--><g id="link_ADMIN_UC_AUDIT"><path d="M118.7313,1929.0104 C255.8531,1929.0104 791.7708,1929.0104 791.7708,1929.0104 C791.7708,1929.0104 791.7708,1785.6781 791.7708,1728.1687 " fill="none" id="ADMIN-to-UC_AUDIT" style="stroke:#1F3A68;stroke-width:1.1458333333333333;"/><polygon fill="#1F3A68" points="791.7708,1721.2937,787.1875,1731.6062,791.7708,1727.0229,796.3542,1731.6062,791.7708,1721.2937" style="stroke:#1F3A68;stroke-width:1.1458333333333333;"/></g><!--link ADMIN to UC_USERS_TEAMS--><g id="link_ADMIN_UC_USERS_TEAMS"><path d="M118.6167,1906.6667 C236.4198,1906.6667 643.9583,1906.6667 643.9583,1906.6667 C643.9583,1906.6667 643.9583,515.6937 643.9583,360.0667 " fill="none" id="ADMIN-to-UC_USERS_TEAMS" style="stroke:#1F3A68;stroke-width:1.1458333333333333;"/><polygon fill="#1F3A68" points="643.9583,353.1917,639.375,363.5042,643.9583,358.9208,648.5417,363.5042,643.9583,353.1917" style="stroke:#1F3A68;stroke-width:1.1458333333333333;"/></g><!--link ADMIN to UC_EXPORT--><g id="link_ADMIN_UC_EXPORT"><path d="M118.6167,1884.3229 C170.4885,1884.3229 268.125,1884.3229 268.125,1884.3229 C268.125,1884.3229 268.125,1389.8615 268.125,1315.4396 " fill="none" id="ADMIN-to-UC_EXPORT" style="stroke:#1F3A68;stroke-width:1.1458333333333333;"/><polygon fill="#1F3A68" points="268.125,1308.5646,263.5417,1318.8771,268.125,1314.2937,272.7083,1318.8771,268.125,1308.5646" style="stroke:#1F3A68;stroke-width:1.1458333333333333;"/></g><!--link CAND to UC_ADM_SUB--><g id="link_CAND_UC_ADM_SUB"><path d="M167.4979,123.75 C205.2531,123.75 243.9479,123.75 284.6479,123.75 " fill="none" id="CAND-to-UC_ADM_SUB" style="stroke:#1F3A68;stroke-width:1.1458333333333333;"/><polygon fill="#1F3A68" points="291.5229,123.75,281.2104,119.1667,285.7938,123.75,281.2104,128.3333,291.5229,123.75" style="stroke:#1F3A68;stroke-width:1.1458333333333333;"/></g><!--link UC_VAC_DECIDE to UC_AUDIT--><g id="link_UC_VAC_DECIDE_UC_AUDIT"><path d="M530.8646,1096.3677 C572.7563,1096.3677 608.4375,1096.3677 608.4375,1096.3677 C608.4375,1096.3677 608.4375,1688.3854 608.4375,1688.3854 C608.4375,1688.3854 652.7583,1688.3854 700.9635,1688.3854 " fill="none" id="UC_VAC_DECIDE-to-UC_AUDIT" style="stroke:#1F3A68;stroke-width:1.1458333333333333;stroke-dasharray:7.0,7.0;"/><polygon fill="#1F3A68" points="707.8385,1688.3854,697.526,1683.8021,702.1094,1688.3854,697.526,1692.9688,707.8385,1688.3854" style="stroke:#1F3A68;stroke-width:1.1458333333333333;"/><text fill="#000000" font-family="Segoe UI" font-size="14.8958" lengthAdjust="spacing" textLength="63.0208" x="544.2708" y="1420.5106">&#171;include&#187;</text></g><!--link UC_VAC_DECIDE to UC_VAC_RULES--><g id="link_UC_VAC_DECIDE_UC_VAC_RULES"><path d="M531.0938,1076.1323 C645.1042,1076.1323 791.7708,1076.1323 791.7708,1076.1323 C791.7708,1076.1323 791.7708,1120.4073 791.7708,1154.9771 " fill="none" id="UC_VAC_DECIDE-to-UC_VAC_RULES" style="stroke:#1F3A68;stroke-width:1.1458333333333333;stroke-dasharray:7.0,7.0;"/><polygon fill="#1F3A68" points="791.7708,1161.8521,796.3542,1151.5396,791.7708,1156.1229,787.1875,1151.5396,791.7708,1161.8521" style="stroke:#1F3A68;stroke-width:1.1458333333333333;"/><text fill="#000000" font-family="Segoe UI" font-size="14.8958" lengthAdjust="spacing" textLength="63.0208" x="640.1312" y="1093.3522">&#171;include&#187;</text></g><!--link UC_PERM to UC_AUDIT--><g id="link_UC_PERM_UC_AUDIT"><path d="M516.3698,1710.1563 C578.1646,1710.1563 645.6542,1710.1563 701.4333,1710.1563 " fill="none" id="UC_PERM-to-UC_AUDIT" style="stroke:#1F3A68;stroke-width:1.1458333333333333;stroke-dasharray:7.0,7.0;"/><polygon fill="#1F3A68" points="708.3083,1710.1563,697.9958,1705.5729,702.5792,1710.1563,697.9958,1714.7396,708.3083,1710.1563" style="stroke:#1F3A68;stroke-width:1.1458333333333333;"/><text fill="#000000" font-family="Segoe UI" font-size="14.8958" lengthAdjust="spacing" textLength="63.0208" x="548.1667" y="1727.3762">&#171;include&#187;</text></g><!--link UC_ADM_DONE to UC_USERS_TEAMS--><g id="link_UC_ADM_DONE_UC_USERS_TEAMS"><path d="M531.449,325.4167 C567.6687,325.4167 600.2792,325.4167 637.2781,325.4167 " fill="none" id="UC_ADM_DONE-to-UC_USERS_TEAMS" style="stroke:#1F3A68;stroke-width:1.1458333333333333;stroke-dasharray:7.0,7.0;"/><polygon fill="#1F3A68" points="644.1531,325.4167,633.8406,320.8333,638.424,325.4167,633.8406,330,644.1531,325.4167" style="stroke:#1F3A68;stroke-width:1.1458333333333333;"/><text fill="#000000" font-family="Segoe UI" font-size="14.8958" lengthAdjust="spacing" textLength="63.0208" x="523.6344" y="342.6366">&#171;include&#187;</text></g><!--link UC_HB to UC_HB_POLICY--><g id="link_UC_HB_UC_HB_POLICY"><path d="M511.6146,758.2552 C554.8125,758.2552 597.8156,758.2552 643.374,758.2552 " fill="none" id="UC_HB-to-UC_HB_POLICY" style="stroke:#1F3A68;stroke-width:1.1458333333333333;stroke-dasharray:7.0,7.0;"/><polygon fill="#1F3A68" points="650.249,758.2552,639.9365,753.6719,644.5198,758.2552,639.9365,762.8385,650.249,758.2552" style="stroke:#1F3A68;stroke-width:1.1458333333333333;"/><text fill="#000000" font-family="Segoe UI" font-size="14.8958" lengthAdjust="spacing" textLength="63.0208" x="516.7708" y="775.4752">&#171;include&#187;</text></g><!--link UC_EXPORT to UC_AUDIT--><g id="link_UC_EXPORT_UC_AUDIT"><path d="M531.6667,1307.7281 C531.6667,1365.1573 531.6667,1699.2708 531.6667,1699.2708 C531.6667,1699.2708 614.4875,1699.2708 688.4167,1699.2708 " fill="none" id="UC_EXPORT-to-UC_AUDIT" style="stroke:#1F3A68;stroke-width:1.1458333333333333;stroke-dasharray:7.0,7.0;"/><polygon fill="#1F3A68" points="695.2917,1699.2708,684.9792,1694.6875,689.5625,1699.2708,684.9792,1703.8542,695.2917,1699.2708" style="stroke:#1F3A68;stroke-width:1.1458333333333333;"/><text fill="#000000" font-family="Segoe UI" font-size="14.8958" lengthAdjust="spacing" textLength="63.0208" x="532.8125" y="1602.5377">&#171;include&#187;</text></g><!--link UC_PROFILE to UC_NOTIF--><g id="link_UC_PROFILE_UC_NOTIF"><path d="M505.3698,199.7531 C553.7698,199.7531 604.6219,199.7531 655.4969,199.7531 " fill="none" id="UC_PROFILE-to-UC_NOTIF" style="stroke:#1F3A68;stroke-width:1.1458333333333333;stroke-dasharray:7.0,7.0;"/><polygon fill="#1F3A68" points="662.3719,199.7531,652.0594,195.1698,656.6427,199.7531,652.0594,204.3365,662.3719,199.7531" style="stroke:#1F3A68;stroke-width:1.1458333333333333;"/><text fill="#000000" font-family="Segoe UI" font-size="14.8958" lengthAdjust="spacing" textLength="63.0208" x="585.0167" y="216.9731">&#171;include&#187;</text></g><!--SRC=[XLRDZjis4BxhAGZdaWAxsRys3OfW0LcMrmQybYlRs_Qqu4fZYrc9L4d9tgJemnGv12sGOv_0BzOXPScKvI8dG_C_ttmpT0ghWXI2IBPE2X8p2L7117TKH5CW6NqXLzS_N98jYul4KS-CvrJIZAY4ncBB-9giQAh0qZpHw7ajHSbZJwH2act22bkVevwkOLvynFWw6-Nhr3QWKI5afQPRK2ApbIdZK7pCWGXP9C9In3aZLrUNbiILKcoh6bvT3M_Sj-ziSrZHCYs6WXTJcW6Pmre0MOvFcypP9o1NDvQoL11H1UGFXv2-a378TYQK7k7molU7DqCNDJhYNdOvlBxv_jhviujFDtB_H-_jO70gyl3Tq1qE_YUoO_0aFPJJ9o5nR19KZr15l63IA1DO0NPC_DzBbjDAFVA7VcqGZiXhDmAb15c8WgRV6PDmv2vg2pVE63TITt0_dZQHAOzPJ95X65tRABNxBAe4xdJWE0q5I6z-xuOBFoIZPP-S4uygeRJN4fE-3a6LcI3-2qHbmJQYAa1RQg1gq7hZ67Y1-T0Do9tOWEIKxxvGaztKtpCEf9bWRynPnAWa2WwbBRt7IN27NRGitRBGqICqph6t0B-JsZnmbujHszmJN261j3L8q_Y_e0W2ZVLJLJlElM3cjntlGB8Z9zmA0twXmQzTPtvuVrnXp7H2kljY_2Av-weBRhAvoy5uWJx82mirZqMf6T03GaTYGIooTF1ggbknL1UM5Y3hV0gusdtT06iIpi9WE9uSDJWL1LiP77LZ8iifJ_0ZXeYPVcldQR0O3zkkFj_eOKK2Vmj3MTeYbUvnSFyudZwq_URbKmPOAS6y2JNpAyGpSDjflknt9XYb9NRRvC228waBG1Acx5C5q27289YUdEN16jGP0RDaUgePP4yWLSBofkVbt0_dZmlVlPztvhI0B1TdE9qiJndbaIPva5VmV-uo-z3pxcyiMbtGKkt-uSZs9jk3wps6_iz7BCgbs51v4S87C7IAS9-OsQ4SS9j5ottWU-E1VnmXtQz9kYSWcIqk-g66Zs8xPaDRDImd_hmTum61mPV8h8z9IlHxGJ-KgjWlODEE7Ua1uHi7qquieXyq7k_-aanWH5mccbx0uToXk-TEZiZsWcbqjWoB9fINL3EUuKMBh3kAdlwlio3ixbLVKiNICp80N8oDI3SimmEYITI7x1nq8vsXcNbAV4PvP5OomJLKf1_MgKPTZXOIrnLtwIK2VVuqArOG9GBNCQFyS2z6_STPC1bxlvsYw4h8hE8HkkSfvIOx3b42amr4Yt2AC8Nj027iOTf2cZw1_bUWxmAWZ8YerFCMLXc_-9E9WGh1mZU8d9_V7Wwk9QXEgYMeJgKbg8-B9QfEXYMe6Mw9z9ojpxedIsHATCmBQCVPKxqbDy5iWRt0BKMTnz7Fvecmn-9g9uwbDRzj-Pv-jgW-WiSoSw5ieLskBKUUjJzhxjXIymBP0WDSAwTvS1ppdw3brP9KLYsHNLTBiM_MqNyVxCxqzNPQY98tRmxHoK_a_NkcxtaCjxUd3HlKkyQwvc_4g-6jpQmEkiQZVctM8DirgbhzHjhz4jHMPW7QLly1]--></g></svg>